<svg width="20" height="20" viewBox="0 0 20 20" fill="none" xmlns="http://www.w3.org/2000/svg">
<path d="M2 3.16675H10C10.275 3.16675 10.5 3.39175 10.5 3.66675V10.873C10.8469 10.1136 11.3656 9.45112 12 8.92612V3.66675C12 2.56362 11.1031 1.66675 10 1.66675H2C0.896875 1.66675 0 2.56362 0 3.66675V15.6667C0 16.7699 0.896875 17.6667 2 17.6667H10C10.6094 17.6667 11.1562 17.3949 11.5219 16.9636C11.1031 16.5261 10.7563 16.0167 10.5 15.4605V15.6667C10.5 15.9417 10.275 16.1667 10 16.1667H7.5V14.1667C7.5 13.3386 6.82812 12.6667 6 12.6667C5.17188 12.6667 4.5 13.3386 4.5 14.1667V16.1667H2C1.725 16.1667 1.5 15.9417 1.5 15.6667V3.66675C1.5 3.39175 1.725 3.16675 2 3.16675ZM2.75 4.91675V6.41675C2.75 6.69175 2.975 6.91675 3.25 6.91675H4.75C5.025 6.91675 5.25 6.69175 5.25 6.41675V4.91675C5.25 4.64175 5.025 4.41675 4.75 4.41675H3.25C2.975 4.41675 2.75 4.64175 2.75 4.91675ZM7.25 4.41675C6.975 4.41675 6.75 4.64175 6.75 4.91675V6.41675C6.75 6.69175 6.975 6.91675 7.25 6.91675H8.75C9.025 6.91675 9.25 6.69175 9.25 6.41675V4.91675C9.25 4.64175 9.025 4.41675 8.75 4.41675H7.25ZM2.75 8.91675V10.4167C2.75 10.6917 2.975 10.9167 3.25 10.9167H4.75C5.025 10.9167 5.25 10.6917 5.25 10.4167V8.91675C5.25 8.64175 5.025 8.41675 4.75 8.41675H3.25C2.975 8.41675 2.75 8.64175 2.75 8.91675ZM7.25 8.41675C6.975 8.41675 6.75 8.64175 6.75 8.91675V10.4167C6.75 10.6917 6.975 10.9167 7.25 10.9167H8.75C9.025 10.9167 9.25 10.6917 9.25 10.4167V8.91675C9.25 8.64175 9.025 8.41675 8.75 8.41675H7.25ZM20 13.1667C20 11.9733 19.5259 10.8287 18.682 9.98477C17.8381 9.14086 16.6935 8.66675 15.5 8.66675C14.3065 8.66675 13.1619 9.14086 12.318 9.98477C11.4741 10.8287 11 11.9733 11 13.1667C11 14.3602 11.4741 15.5048 12.318 16.3487C13.1619 17.1926 14.3065 17.6667 15.5 17.6667C16.6935 17.6667 17.8381 17.1926 18.682 16.3487C19.5259 15.5048 20 14.3602 20 13.1667ZM17.6031 11.8136C17.7969 12.0074 17.7969 12.3261 17.6031 12.5199L15.3531 14.7699C15.1594 14.9636 14.8406 14.9636 14.6469 14.7699L13.3969 13.5199C13.2031 13.3261 13.2031 13.0074 13.3969 12.8136C13.5906 12.6199 13.9094 12.6199 14.1031 12.8136L15 13.7105L16.8969 11.8136C17.0906 11.6199 17.4094 11.6199 17.6031 11.8136Z" fill="#16191D"/>
</svg>
