<svg width="20" height="20" viewBox="0 0 20 20" fill="none" xmlns="http://www.w3.org/2000/svg">
<path d="M4.5 5.66663C4.5 5.00359 4.76339 4.3677 5.23223 3.89886C5.70107 3.43002 6.33696 3.16663 7 3.16663C7.66304 3.16663 8.29893 3.43002 8.76777 3.89886C9.23661 4.3677 9.5 5.00359 9.5 5.66663C9.5 6.32967 9.23661 6.96555 8.76777 7.43439C8.29893 7.90323 7.66304 8.16663 7 8.16663C6.33696 8.16663 5.70107 7.90323 5.23223 7.43439C4.76339 6.96555 4.5 6.32967 4.5 5.66663ZM11 5.66663C11 4.60576 10.5786 3.58834 9.82843 2.8382C9.07828 2.08805 8.06087 1.66663 7 1.66663C5.93913 1.66663 4.92172 2.08805 4.17157 2.8382C3.42143 3.58834 3 4.60576 3 5.66663C3 6.72749 3.42143 7.74491 4.17157 8.49505C4.92172 9.2452 5.93913 9.66663 7 9.66663C8.06087 9.66663 9.07828 9.2452 9.82843 8.49505C10.5786 7.74491 11 6.72749 11 5.66663ZM8.42813 12.6666C10.4813 12.6666 12.1813 14.1885 12.4594 16.1666H1.54062C1.81875 14.1885 3.51875 12.6666 5.57188 12.6666H8.42813ZM5.57188 11.1666C2.49375 11.1666 0 13.6604 0 16.7385C0 17.251 0.415625 17.6666 0.928125 17.6666H13.0719C13.5844 17.6666 14 17.251 14 16.7385C14 13.6604 11.5063 11.1666 8.42813 11.1666H7H5.57188ZM15.75 11.4166C15.75 11.8323 16.0844 12.1666 16.5 12.1666C16.9156 12.1666 17.25 11.8323 17.25 11.4166V9.41663H19.25C19.6656 9.41663 20 9.08225 20 8.66663C20 8.251 19.6656 7.91663 19.25 7.91663H17.25V5.91663C17.25 5.501 16.9156 5.16663 16.5 5.16663C16.0844 5.16663 15.75 5.501 15.75 5.91663V7.91663H13.75C13.3344 7.91663 13 8.251 13 8.66663C13 9.08225 13.3344 9.41663 13.75 9.41663H15.75V11.4166Z" fill="#16191D"/>
</svg>
