<svg width="16" height="16" viewBox="0 0 16 16" fill="none" xmlns="http://www.w3.org/2000/svg">
<path d="M15.5 6.25C15.5 6.66563 15.1656 7 14.75 7H11.25H10.25C9.83438 7 9.5 6.66563 9.5 6.25C9.5 5.83437 9.83438 5.5 10.25 5.5H11.25H12.9406L11.3125 3.87188C10.4312 2.99375 9.24063 2.5 8 2.5C5.72813 2.5 3.775 3.87813 2.9375 5.84688C2.775 6.22813 2.33438 6.40625 1.95312 6.24375C1.57187 6.08125 1.39375 5.64062 1.55625 5.25938C2.62187 2.75625 5.10625 1 8 1C9.64062 1 11.2125 1.65 12.3719 2.80938L14 4.44063V2.75V2.7375V1.75C14 1.33437 14.3344 1 14.75 1C15.1656 1 15.5 1.33437 15.5 1.75V6.25ZM1.25 9H4.75C5.16563 9 5.5 9.33438 5.5 9.75C5.5 10.1656 5.16563 10.5 4.75 10.5H3.05938L4.6875 12.1281C5.56875 13.0063 6.75938 13.5 8 13.5C10.2688 13.5 12.2188 12.1281 13.0594 10.1625C13.2219 9.78125 13.6625 9.60625 14.0437 9.76875C14.425 9.93125 14.6 10.3719 14.4375 10.7531C13.3687 13.25 10.8906 15 8 15C6.35938 15 4.7875 14.35 3.62812 13.1906L2 11.5594V13.25C2 13.6656 1.66562 14 1.25 14C0.834375 14 0.5 13.6656 0.5 13.25V9.75C0.5 9.33438 0.834375 9 1.25 9Z" fill="black"/>
</svg>
