<svg width="20" height="20" viewBox="0 0 20 20" fill="none" xmlns="http://www.w3.org/2000/svg">
<path d="M10 1.875C5.51172 1.875 1.875 5.51172 1.875 10C1.875 14.4883 5.51172 18.125 10 18.125C10.5195 18.125 10.9375 18.543 10.9375 19.0625C10.9375 19.582 10.5195 20 10 20C4.47656 20 0 15.5234 0 10C0 4.47656 4.47656 0 10 0C15.5234 0 20 4.47656 20 10V11.0938C20 13.0781 18.3906 14.6875 16.4062 14.6875C15.1914 14.6875 14.1133 14.082 13.4648 13.1562C12.6055 14.0977 11.3711 14.6875 10 14.6875C7.41016 14.6875 5.3125 12.5898 5.3125 10C5.3125 7.41016 7.41016 5.3125 10 5.3125C11.125 5.3125 12.1562 5.70703 12.9609 6.36719C13.1289 6.10938 13.418 5.9375 13.75 5.9375C14.2695 5.9375 14.6875 6.35547 14.6875 6.875V10V11.0938C14.6875 12.043 15.457 12.8125 16.4062 12.8125C17.3555 12.8125 18.125 12.043 18.125 11.0938V10C18.125 5.51172 14.4883 1.875 10 1.875ZM12.8125 10C12.8125 9.25408 12.5162 8.53871 11.9887 8.01126C11.4613 7.48382 10.7459 7.1875 10 7.1875C9.25408 7.1875 8.53871 7.48382 8.01126 8.01126C7.48382 8.53871 7.1875 9.25408 7.1875 10C7.1875 10.7459 7.48382 11.4613 8.01126 11.9887C8.53871 12.5162 9.25408 12.8125 10 12.8125C10.7459 12.8125 11.4613 12.5162 11.9887 11.9887C12.5162 11.4613 12.8125 10.7459 12.8125 10Z" fill="#16191D"/>
</svg>
