<svg width="24" height="24" viewBox="0 0 24 24" fill="none" xmlns="http://www.w3.org/2000/svg">
<path d="M11.5 0C10.6702 0 9.99985 0.670312 9.99985 1.5V2.33906C6.60107 2.87813 3.99925 5.82187 3.99925 9.375V10.9406C3.99925 13.0687 3.27262 15.1359 1.94592 16.7953L1.24741 17.6719C0.975512 18.0094 0.923944 18.4734 1.11146 18.8625C1.29898 19.2516 1.69277 19.5 2.12406 19.5H20.8759C21.3072 19.5 21.701 19.2516 21.8885 18.8625C22.0761 18.4734 22.0245 18.0094 21.7526 17.6719L21.0541 16.8C19.7274 15.1359 19.0007 13.0687 19.0007 10.9406V9.375C19.0007 5.82187 16.3989 2.87813 13.0001 2.33906V1.5C13.0001 0.670312 12.3298 0 11.5 0ZM11.5 4.5H11.875C14.5659 4.5 16.7505 6.68437 16.7505 9.375V10.9406C16.7505 13.1859 17.4022 15.375 18.6116 17.25H4.38835C5.59785 15.375 6.24948 13.1859 6.24948 10.9406V9.375C6.24948 6.68437 8.43407 4.5 11.125 4.5H11.5ZM14.5003 21H11.5H8.4997C8.4997 21.7969 8.81379 22.5609 9.37635 23.1234C9.93891 23.6859 10.703 24 11.5 24C12.297 24 13.0611 23.6859 13.6236 23.1234C14.1862 22.5609 14.5003 21.7969 14.5003 21Z" fill="#252525"/>
</svg>
