<svg width="14" height="14" viewBox="0 0 14 14" fill="none" xmlns="http://www.w3.org/2000/svg">
<g clip-path="url(#clip0_940_3917)">
<path d="M7.5566 0.989329C7.47882 0.748746 7.25521 0.583496 7 0.583496C6.74479 0.583496 6.52118 0.748746 6.4434 0.989329L5.21354 4.86054H1.36111C1.11077 4.86054 0.889585 5.0185 0.809377 5.25423C0.729168 5.48995 0.806946 5.74997 1.00382 5.90307L4.18299 8.37696L2.9434 12.2652C2.86563 12.5082 2.95556 12.7755 3.16458 12.9213C3.37361 13.0671 3.65556 13.0598 3.85729 12.9043L7 10.4596L10.1427 12.9019C10.3444 13.0598 10.624 13.0671 10.8354 12.9189C11.0469 12.7706 11.1344 12.5082 11.0566 12.2627L9.81701 8.37696L12.9962 5.90307C13.1931 5.74997 13.2708 5.48995 13.1906 5.25423C13.1104 5.0185 12.8892 4.86054 12.6389 4.86054H8.78646L7.5566 0.989329Z" fill="#252525"/>
</g>
<defs>
<clipPath id="clip0_940_3917">
<rect width="14" height="14" fill="white"/>
</clipPath>
</defs>
</svg>
