<svg width="25" height="25" viewBox="0 0 25 25" fill="none" xmlns="http://www.w3.org/2000/svg">
<g clip-path="url(#clip0_715_2683)">
<path d="M1.97926 1.97058C1.42035 1.97058 0.970703 2.41634 0.970703 2.97042C0.970703 3.5245 1.42035 3.97027 1.97926 3.97027H3.8913C4.05099 3.97027 4.18967 4.08275 4.22329 4.24106L6.39167 15.531C6.66482 16.9474 7.91291 17.9681 9.3627 17.9681H21.4779C22.0368 17.9681 22.4865 17.5223 22.4865 16.9682C22.4865 16.4142 22.0368 15.9684 21.4779 15.9684L9.3627 15.9684C8.87944 15.9684 8.46341 15.6268 8.37096 15.156L8.14403 13.9687L20.2677 13.9687C21.6376 13.9687 22.8353 13.0605 23.1883 11.7482L24.9112 5.40338C25.2012 4.34521 24.3943 3.30371 23.2891 3.30371L6.01767 3.30371C5.63526 2.50383 4.82001 1.97058 3.8913 1.97058L1.97926 1.97058ZM6.47992 5.30339L22.8521 5.30339L21.2426 11.2275C21.1249 11.6649 20.7257 11.969 20.2677 11.969L7.76162 11.969L6.47992 5.30339ZM8.36676 23.3006C8.90173 23.3006 9.41478 23.0899 9.79307 22.7149C10.1713 22.3399 10.3839 21.8312 10.3839 21.3009C10.3839 20.7705 10.1713 20.2619 9.79307 19.8869C9.41478 19.5119 8.90173 19.3012 8.36676 19.3012C7.83179 19.3012 7.31873 19.5119 6.94045 19.8869C6.56217 20.2619 6.34965 20.7705 6.34965 21.3009C6.34965 21.8312 6.56217 22.3399 6.94045 22.7149C7.31873 23.0899 7.83179 23.3006 8.36676 23.3006ZM22.4865 21.3009C22.4865 20.7705 22.274 20.2619 21.8957 19.8869C21.5174 19.5119 21.0044 19.3012 20.4694 19.3012C19.9344 19.3012 19.4214 19.5119 19.0431 19.8869C18.6648 20.2619 18.4523 20.7705 18.4523 21.3009C18.4523 21.8312 18.6648 22.3399 19.0431 22.7149C19.4214 23.0899 19.9344 23.3006 20.4694 23.3006C21.0044 23.3006 21.5174 23.0899 21.8957 22.7149C22.274 22.3399 22.4865 21.8312 22.4865 21.3009Z" fill="#27B973"/>
</g>
<defs>
<clipPath id="clip0_715_2683">
<rect width="24" height="24" fill="white" transform="translate(0.970703 0.970581)"/>
</clipPath>
</defs>
</svg>
