<svg width="20" height="20" viewBox="0 0 20 20" fill="none" xmlns="http://www.w3.org/2000/svg">
<g clip-path="url(#clip0_754_2811)">
<path d="M10.0052 3.33869C12.8236 3.33869 15.6423 3.35158 18.4607 3.33049C19.2837 3.32424 20.0364 3.99885 19.9989 4.87697C19.9712 5.52814 19.9907 6.18205 19.9954 6.83439C20.0001 7.48439 19.7048 7.94885 19.1286 8.23088C18.5993 8.48986 18.2447 8.8926 18.0798 9.45471C17.8079 10.3828 18.2263 11.325 19.1212 11.793C19.5239 12.0035 19.8064 12.3055 19.9255 12.7473C19.9743 12.9285 19.9849 13.116 19.9861 13.3031C19.9896 13.9696 19.9966 14.636 19.9919 15.3024C19.9872 15.9887 19.3294 16.6516 18.6388 16.6629C18.0001 16.6735 17.3614 16.6672 16.7228 16.6672C11.6552 16.6672 6.58762 16.6668 1.51965 16.6676C0.890353 16.6676 0.43254 16.3879 0.144259 15.8336C0.0481651 15.6485 -0.00066299 15.4469 0.000508885 15.234C0.00324326 14.5258 -0.00144424 13.818 0.00246201 13.1098C0.00558701 12.5043 0.289571 12.0563 0.825509 11.7961C1.54895 11.4449 1.95481 10.8746 1.98957 10.0883C2.02551 9.2758 1.66848 8.62775 0.935275 8.25002C0.302462 7.92385 0.00949326 7.42619 0.00793076 6.73205C0.00558701 6.06643 0.00011826 5.40002 0.00207139 4.73361C0.00441514 4.00158 0.668868 3.33947 1.40402 3.33908C4.27082 3.33713 7.13801 3.3383 10.0052 3.33869ZM9.9802 15.3348C12.77 15.3348 15.5603 15.3348 18.3501 15.3348C18.6462 15.3348 18.6618 15.3199 18.6614 15.0324C18.6607 14.4567 18.6568 13.8809 18.6349 13.3047C18.6275 13.1102 18.563 13.0164 18.3989 12.925C17.3743 12.3555 16.7716 11.4715 16.679 10.3149C16.5622 8.85822 17.1786 7.75314 18.4845 7.06096C18.6212 6.9883 18.6669 6.90002 18.6654 6.74963C18.6579 6.15275 18.6626 5.55588 18.6622 4.959C18.6618 4.69689 18.6368 4.67111 18.3771 4.67111C12.79 4.67111 7.20324 4.67111 1.61613 4.6715C1.36652 4.6715 1.33332 4.70627 1.33332 4.96603C1.33371 5.56291 1.33449 6.15939 1.36692 6.75588C1.37512 6.90861 1.42629 6.97893 1.55676 7.05314C2.74895 7.73322 3.3759 8.75861 3.32473 10.1383C3.27785 11.4141 2.64777 12.3504 1.51887 12.9438C1.38059 13.0164 1.32824 13.0961 1.3302 13.2477C1.33684 13.8305 1.33332 14.4137 1.33371 14.9965C1.33371 15.3281 1.33996 15.3348 1.67277 15.3348C4.44192 15.3348 7.21106 15.3348 9.9802 15.3348Z" fill="#16191D"/>
<path d="M7.02246 14.0649C7.02832 13.8762 7.07754 13.743 7.15176 13.6145C8.67363 10.9809 10.1939 8.34616 11.7154 5.71218C11.9248 5.35007 12.3123 5.2403 12.6592 5.4403C12.9842 5.6278 13.0791 6.03561 12.8697 6.40046C12.024 7.87272 11.1744 9.34226 10.3264 10.8133C9.65527 11.9778 8.98496 13.143 8.31387 14.3079C8.14863 14.595 7.83691 14.7563 7.57363 14.6919C7.24395 14.611 7.02793 14.3501 7.02246 14.0649Z" fill="black"/>
<path d="M11.3309 12.9907C11.3095 12.0454 12.1563 11.3176 12.995 11.3333C13.9259 11.3504 14.6618 12.0684 14.6602 12.9903C14.6587 13.9383 13.9345 14.6559 12.9962 14.6711C12.0931 14.6856 11.3001 13.8907 11.3309 12.9907ZM13.3274 13.0215C13.3431 12.861 13.1849 12.686 13.011 12.6715C12.8606 12.659 12.6888 12.8106 12.6681 12.9735C12.6481 13.1317 12.8067 13.3188 12.9727 13.3333C13.1372 13.3477 13.3106 13.1954 13.3274 13.0215Z" fill="black"/>
<path d="M6.99823 8.67266C6.07479 8.67266 5.34393 7.93516 5.33026 7.01524C5.31581 6.03477 6.16971 5.32422 6.99862 5.33633C7.9244 5.35001 8.66307 6.07501 8.66229 6.99571C8.66151 7.94297 7.93729 8.67266 6.99823 8.67266ZM6.98651 7.33672C7.15838 7.34141 7.32284 7.18751 7.33065 7.01446C7.33807 6.85313 7.16854 6.6793 7.00096 6.67579C6.83885 6.67266 6.66502 6.84727 6.66737 7.01133C6.66932 7.16993 6.8287 7.33243 6.98651 7.33672Z" fill="black"/>
</g>
<defs>
<clipPath id="clip0_754_2811">
<rect width="20" height="20" fill="white"/>
</clipPath>
</defs>
</svg>
