<svg width="34" height="34" viewBox="0 0 34 34" fill="none" xmlns="http://www.w3.org/2000/svg">
<g clip-path="url(#clip0_715_2661)">
<path d="M11.3224 11.314C13.7139 8.92253 16.1166 6.54168 18.4902 4.13232C19.1833 3.42864 20.3944 3.36235 21.1077 4.13928C21.6367 4.71535 22.2081 5.25364 22.7656 5.80319C23.3212 6.35076 23.4647 6.99544 23.2151 7.72365C22.9857 8.39253 23.0265 9.03522 23.3636 9.65206C23.9204 10.6703 25.0749 11.1148 26.2314 10.7525C26.7517 10.5894 27.2476 10.606 27.7236 10.8798C27.9188 10.9921 28.0868 11.1423 28.2466 11.3001C28.8151 11.8625 29.3865 12.422 29.948 12.9915C30.5264 13.5778 30.5307 14.6985 29.9543 15.2941C29.4213 15.845 28.8741 16.3816 28.3321 16.9235C24.0321 21.2235 19.7318 25.5232 15.4322 29.8242C14.8982 30.3581 14.2724 30.5093 13.5575 30.2836C13.3188 30.208 13.1063 30.0784 12.9267 29.8968C12.3281 29.2935 11.7235 28.6969 11.1259 28.0926C10.6148 27.5762 10.4756 26.9551 10.7096 26.2796C11.0255 25.3677 10.8859 24.5394 10.2482 23.8427C9.58926 23.1228 8.73642 22.8758 7.79376 23.1775C6.98004 23.4377 6.30917 23.264 5.71884 22.6763C5.15205 22.1135 4.58195 21.5527 4.01814 20.9855C3.39898 20.3624 3.40097 19.2368 4.02444 18.6127C6.45534 16.1784 8.88923 13.7465 11.3224 11.314ZM21.4803 21.5142C23.8475 19.147 26.2151 16.7794 28.5824 14.4121C28.8336 14.1609 28.8343 14.135 28.59 13.8914C28.1008 13.4035 27.6089 12.9182 27.1014 12.4479C26.9301 12.2891 26.7958 12.2643 26.579 12.3259C25.2264 12.7121 23.9649 12.4734 22.9049 11.5705C21.5698 10.4336 21.1551 8.97291 21.6758 7.27751C21.7302 7.09985 21.694 6.98616 21.5651 6.85987C21.0523 6.35971 20.5499 5.84926 20.0431 5.34313C19.8203 5.12105 19.7772 5.12039 19.5568 5.34081C14.816 10.0816 10.0755 14.8221 5.33502 19.5633C5.12322 19.7751 5.12454 19.8327 5.34496 20.0532C5.85176 20.5593 6.35856 21.0648 6.8922 21.5434C7.02876 21.666 7.13184 21.6823 7.30553 21.6345C8.8942 21.2 10.2963 21.5381 11.4235 22.7522C12.4663 23.8745 12.7262 25.2037 12.2717 26.6651C12.2161 26.844 12.2393 26.9561 12.3695 27.083C12.8697 27.5719 13.3616 28.0698 13.8564 28.564C14.1378 28.8454 14.1488 28.8457 14.4312 28.5633C16.7809 26.2136 19.1306 23.8639 21.4803 21.5142Z" fill="#E33B32"/>
<path d="M17.8928 22.9464C17.7377 22.7814 17.6665 22.6266 17.6204 22.4545C16.6771 18.9285 15.7314 15.4028 14.7874 11.8768C14.6578 11.3919 14.8935 10.9699 15.3575 10.8453C15.7924 10.7286 16.219 10.9941 16.3509 11.4814C16.8826 13.4482 17.4086 15.4161 17.9373 17.3839C18.3559 18.9414 18.7758 20.499 19.1948 22.0568C19.2982 22.4406 19.1706 22.842 18.8925 23.0107C18.5442 23.2219 18.1394 23.1838 17.8928 22.9464Z" fill="#E33B32"/>
<path d="M20.6373 18.379C19.8169 17.5951 19.918 16.259 20.6429 15.5606C21.4474 14.7853 22.6811 14.7701 23.462 15.5536C24.2651 16.3594 24.2595 17.5828 23.4762 18.3919C22.7222 19.1705 21.3748 19.1688 20.6373 18.379ZM22.3576 16.7111C22.2346 16.5616 21.9519 16.5474 21.7921 16.6826C21.6539 16.7996 21.6366 17.074 21.7573 17.2298C21.8746 17.381 22.168 17.4052 22.3211 17.2766C22.4729 17.1493 22.4908 16.8728 22.3576 16.7111Z" fill="#E33B32"/>
<path d="M13.2969 18.3916C12.5133 19.1751 11.2674 19.1695 10.4752 18.4005C9.63096 17.5808 9.7526 16.2534 10.4662 15.5603C11.2634 14.7863 12.5053 14.7747 13.2859 15.5566C14.089 16.3611 14.0937 17.5948 13.2969 18.3916ZM12.1533 17.2679C12.3032 17.1261 12.3121 16.8559 12.1719 16.7025C12.0413 16.5593 11.75 16.5556 11.6048 16.6949C11.4646 16.8298 11.4652 17.1254 11.6064 17.2626C11.7427 17.3956 12.0158 17.3982 12.1533 17.2679Z" fill="#E33B32"/>
</g>
<defs>
<clipPath id="clip0_715_2661">
<rect width="24" height="24" fill="white" transform="translate(0 16.9706) rotate(-45)"/>
</clipPath>
</defs>
</svg>
