<svg width="16" height="16" viewBox="0 0 16 16" fill="none" xmlns="http://www.w3.org/2000/svg">
<g id="icons/trash">
<path id="Vector" d="M6.66144 1.6125L6.06769 2.5H10.5989L10.0052 1.6125C9.95831 1.54375 9.88019 1.5 9.79581 1.5H6.86769C6.78331 1.5 6.70519 1.54062 6.65831 1.6125H6.66144ZM11.2552 0.78125L12.4021 2.5H12.8333H14.3333H14.5833C14.9989 2.5 15.3333 2.83437 15.3333 3.25C15.3333 3.66563 14.9989 4 14.5833 4H14.3333V13.5C14.3333 14.8813 13.2146 16 11.8333 16H4.83331C3.45206 16 2.33331 14.8813 2.33331 13.5V4H2.08331C1.66769 4 1.33331 3.66563 1.33331 3.25C1.33331 2.83437 1.66769 2.5 2.08331 2.5H2.33331H3.83331H4.26456L5.41144 0.778125C5.73644 0.29375 6.28331 0 6.86769 0H9.79581C10.3802 0 10.9271 0.29375 11.2521 0.778125L11.2552 0.78125ZM3.83331 4V13.5C3.83331 14.0531 4.28019 14.5 4.83331 14.5H11.8333C12.3864 14.5 12.8333 14.0531 12.8333 13.5V4H3.83331ZM6.33331 6V12.5C6.33331 12.775 6.10831 13 5.83331 13C5.55831 13 5.33331 12.775 5.33331 12.5V6C5.33331 5.725 5.55831 5.5 5.83331 5.5C6.10831 5.5 6.33331 5.725 6.33331 6ZM8.83331 6V12.5C8.83331 12.775 8.60831 13 8.33331 13C8.05831 13 7.83331 12.775 7.83331 12.5V6C7.83331 5.725 8.05831 5.5 8.33331 5.5C8.60831 5.5 8.83331 5.725 8.83331 6ZM11.3333 6V12.5C11.3333 12.775 11.1083 13 10.8333 13C10.5583 13 10.3333 12.775 10.3333 12.5V6C10.3333 5.725 10.5583 5.5 10.8333 5.5C11.1083 5.5 11.3333 5.725 11.3333 6Z" fill="#252525"/>
</g>
</svg>
