<svg width="18" height="18" viewBox="0 0 18 18" fill="none" xmlns="http://www.w3.org/2000/svg">
<g clip-path="url(#clip0_598_2768)">
<path d="M15.2757 9.41888C15.1172 8.1754 14.7213 7.00399 14.1071 5.91626C13.5503 5.91626 13.0141 5.91626 12.466 5.91626C13.1062 7.86884 12.8668 9.68817 11.7359 11.3764C10.6713 11.3764 9.63069 11.3764 8.58726 11.3764C8.38898 10.5913 8.1928 9.81544 7.99523 9.03462C7.91648 9.03462 7.85601 9.03462 7.79519 9.03462C6.29894 9.03356 4.80304 9.03216 3.30679 9.03145C3.09726 9.03145 2.89581 8.99454 2.69542 8.93091C2.31819 8.81138 2.04187 8.56071 1.8028 8.26188C0.977686 8.43485 0.421515 8.90595 0.201436 9.71067C0.0632724 10.2166 0.0520224 10.7488 0.0038583 11.2713C-0.0295401 11.6362 0.129015 11.7849 0.497452 11.7849C2.12835 11.7859 3.7596 11.7856 5.3905 11.7881C5.87319 11.7888 6.27995 11.9712 6.62097 12.3122C6.80589 12.4972 6.91734 12.7264 7.01718 12.9531C8.71663 12.9531 10.4006 12.9531 12.0741 12.9531C12.2555 10.971 13.3126 9.80032 15.2757 9.41888ZM3.39925 10.8775C3.15913 10.8817 2.91866 10.8786 2.67819 10.8782C2.4437 10.8782 2.20921 10.8817 1.97472 10.8772C1.72441 10.8726 1.56093 10.7175 1.56163 10.4943C1.56198 10.2714 1.72581 10.116 1.97718 10.1143C2.45214 10.1104 2.92675 10.1104 3.40171 10.1143C3.65202 10.1164 3.81585 10.2735 3.81515 10.4968C3.81409 10.7193 3.64991 10.8733 3.39925 10.8775Z" fill="#252525"/>
<path d="M3.30812 8.25309C4.04957 8.25625 4.79101 8.25379 5.53246 8.25379C5.53246 8.25414 5.53246 8.25449 5.53246 8.25484C6.28621 8.25484 7.03996 8.25801 7.79371 8.25379C8.19801 8.25168 8.56293 7.93738 8.60723 7.56684C8.6575 7.14742 8.42547 6.77969 8.02609 6.66156C7.90691 6.62641 7.78246 6.61727 7.65766 6.61059C7.64535 6.90801 7.40101 7.14566 7.10043 7.14566H3.64703C3.33871 7.14566 3.0884 6.8957 3.0884 6.58703V6.36133C3.08101 6.36309 3.07363 6.36414 3.0659 6.3659C2.53891 6.49668 2.29422 6.96637 2.32656 7.35238C2.37086 7.88008 2.78359 8.25062 3.30812 8.25309Z" fill="#252525"/>
<path d="M14.8823 12.3612C14.915 12.3169 14.9526 12.2765 14.9871 12.2332C15.2395 11.9193 15.5738 11.7892 15.969 11.7906C16.4594 11.792 16.9502 11.7804 17.4399 11.7955C17.6603 11.8022 17.8266 11.7171 17.9894 11.5951C17.4733 10.5911 16.2783 9.98252 14.9948 10.2905C13.7306 10.5939 12.8155 11.7509 12.8875 12.9659C13.1315 12.9659 13.3635 12.9585 13.5952 12.9673C14.1314 12.9877 14.5624 12.7947 14.8823 12.3612Z" fill="#252525"/>
<path d="M4.20091 12.5736C4.33204 13.1583 4.17946 13.6308 3.77235 13.9176C3.37298 14.1989 2.84774 14.2203 2.44731 13.9447C1.96181 13.6104 1.82856 13.1386 1.97552 12.5708C1.57684 12.5708 1.18556 12.5708 0.779501 12.5708C0.591063 13.3305 0.969344 14.394 1.7927 14.927C2.67688 15.4997 3.8163 15.4346 4.60837 14.7638C5.31431 14.1662 5.57868 13.2047 5.38989 12.5736C4.99403 12.5736 4.59817 12.5736 4.20091 12.5736Z" fill="#252525"/>
<path d="M17.9582 12.5327C17.5662 12.5928 17.1693 12.5461 16.7741 12.5714C16.8388 13.3304 16.6416 13.7663 16.1364 13.9945C15.7226 14.1815 15.1323 14.1998 14.6236 13.5547C14.2517 13.7069 13.8583 13.7674 13.448 13.7393C13.7602 14.7423 14.9435 15.5326 16.205 15.2232C17.4316 14.9219 18.1892 13.7055 17.9582 12.5327Z" fill="#252525"/>
<path d="M12.1968 5.11196C12.491 5.11478 12.7849 5.11267 13.0792 5.11267C13.0792 5.11302 13.0792 5.11372 13.0792 5.11407C13.3917 5.11407 13.7043 5.11794 14.0168 5.11302C14.2956 5.10845 14.4615 4.98856 14.4696 4.73614C14.4865 4.1979 14.4854 3.6586 14.471 3.12001C14.4647 2.89079 14.3047 2.7579 14.0727 2.74419C13.8227 2.72942 13.5742 2.72731 13.3246 2.77477C12.4678 2.93755 11.7675 3.72435 11.7183 4.5927C11.6982 4.93899 11.8526 5.10845 12.1968 5.11196Z" fill="#252525"/>
<path d="M16.0482 3.87203C16.0219 3.42801 15.6728 3.05289 15.2664 3.04199C15.2664 3.64598 15.2664 4.2359 15.2664 4.82758C15.7547 4.76008 16.0771 4.35895 16.0482 3.87203Z" fill="#252525"/>
<path d="M10.12 4.71318C10.3872 4.729 10.6561 4.71705 10.9489 4.71705C10.9454 4.44529 10.9954 4.19146 11.046 3.92041C10.7285 3.92041 10.4346 3.91092 10.1418 3.92357C9.92239 3.93307 9.75434 4.11904 9.75293 4.31838C9.75223 4.50752 9.915 4.70088 10.12 4.71318Z" fill="#252525"/>
<path d="M3.48921 12.9491C3.48428 12.736 3.29971 12.5634 3.07788 12.5645C2.87081 12.5652 2.6894 12.7448 2.688 12.9501C2.68659 13.1579 2.87819 13.3488 3.08878 13.3488C3.29901 13.3491 3.49378 13.1544 3.48921 12.9491Z" fill="#252525"/>
<path d="M15.6515 12.5647C15.4364 12.5623 15.2652 12.7264 15.2592 12.9402C15.2532 13.1603 15.4234 13.3417 15.6431 13.3484C15.8628 13.3554 16.0411 13.1821 16.0425 12.9606C16.0432 12.7366 15.8762 12.5672 15.6515 12.5647Z" fill="#252525"/>
<path d="M3.6598 6.7826H7.08859C7.20953 6.7826 7.30797 6.68451 7.30797 6.56322V3.14955C7.30797 3.02861 7.20988 2.93018 7.08859 2.93018H3.6598C3.53887 2.93018 3.44043 3.02826 3.44043 3.14955V6.56322C3.44043 6.68451 3.53852 6.7826 3.6598 6.7826Z" fill="#252525"/>
</g>
<defs>
<clipPath id="clip0_598_2768">
<rect width="18" height="18" fill="white"/>
</clipPath>
</defs>
</svg>
