<svg width="24" height="24" viewBox="0 0 24 24" fill="none" xmlns="http://www.w3.org/2000/svg">
<g clip-path="url(#clip0_2266_1457)">
<path d="M24.0002 15.0806C23.2352 13.7752 22.0938 13.073 20.5652 12.9661C20.4414 10.9673 19.7435 9.15938 18.7769 7.46344C18.9832 7.31813 19.1463 7.20281 19.3221 7.07906C20.291 7.18688 20.8797 6.96469 21.2528 6.31078C21.6025 5.69766 21.5903 5.07375 21.1811 4.49812C20.7171 3.84562 20.0664 3.65578 19.3989 3.82312C19.0375 3.67125 18.7614 3.47109 18.4713 3.44906C17.7382 3.39375 17.021 3.50766 16.3811 3.92016C15.8027 4.29328 15.3977 4.80516 15.1478 5.45391C14.6097 5.45391 14.0777 5.45391 13.5457 5.45391C13.3375 5.45391 13.1603 5.51578 13.0469 5.70328C12.8332 6.05578 13.0713 6.46172 13.5091 6.47156C13.9928 6.48234 14.4771 6.47391 14.9646 6.47391C15.011 6.88594 15.1914 7.185 15.5482 7.3725C15.6082 7.40391 15.6546 7.48359 15.6832 7.55109C16.285 8.96438 16.5278 10.425 16.2475 11.9508C16.0802 12.8616 15.7253 13.6969 15.2163 14.4633H11.8807C11.8624 14.4319 11.8455 14.4131 11.8399 14.3911C11.5868 13.3772 11.335 12.3628 11.081 11.34C11.1335 11.3091 11.1803 11.2823 11.2258 11.2537C11.7691 10.913 12.0616 10.2759 11.9449 9.68719C11.8343 9.12797 11.4794 8.68547 10.983 8.50406V4.17844C10.983 3.50953 10.4388 2.96484 9.76941 2.96484H5.16582C4.49691 2.96484 3.95222 3.50906 3.95222 4.17844V8.18906C3.40191 8.43141 2.96269 9.07453 2.95988 9.72469C2.95894 9.96984 3.02504 10.2155 3.06113 10.4667C3.04894 10.4686 3.01847 10.4761 2.98801 10.4784C1.65441 10.5787 0.555193 11.4759 0.274411 12.7852C0.119255 13.508 0.0597239 14.2542 0.00253642 14.9934C-0.0359011 15.488 0.367693 15.907 0.862224 15.9769C0.929255 15.9862 0.995818 16.0008 1.05816 16.0125C0.714099 17.6405 1.13832 18.9895 2.52535 19.9214C3.72113 20.7253 5.01629 20.7563 6.24535 20.0048C7.70785 19.1105 8.18082 17.7483 7.86301 16.0781C8.36363 16.2028 8.70066 16.5122 8.88722 16.9688C9.05363 17.3761 9.32457 17.5087 9.7605 17.505C12.0785 17.4872 14.3964 17.4966 16.7144 17.4966C16.8133 17.4966 16.9118 17.4966 17.0046 17.4966C17.0247 17.5613 17.0374 17.5898 17.0421 17.6198C17.2877 19.1353 18.5552 20.3944 20.2014 20.5238C22.0793 20.6719 23.4813 19.4273 23.8821 17.9738C23.9233 17.8242 23.9608 17.6737 24.0002 17.5233V16.5366C23.9243 16.2614 23.8483 15.9862 23.7672 15.6928C23.8375 15.607 23.9186 15.5081 24.0002 15.4092V15.0806ZM19.5002 4.86984C19.9057 4.68281 20.2408 4.88672 20.3786 5.09953C20.5338 5.33859 20.516 5.66344 20.3341 5.88703C20.1414 6.12422 19.8349 6.18563 19.5002 6.05063V4.86984ZM16.0338 6.45141C15.783 5.38125 17.0393 4.35562 18.4628 4.47469V6.45141H16.0338ZM10.9811 9.96C10.9703 10.2398 10.7463 10.4573 10.4411 10.4738C10.2696 10.4831 10.0971 10.4766 9.92504 10.4766C9.13472 10.4766 8.34488 10.4766 7.55457 10.4766C6.60816 10.4766 5.66129 10.4789 4.71488 10.4752C4.36566 10.4738 4.10035 10.2938 3.99769 10.0073C3.91801 9.78469 3.94847 9.53109 4.09144 9.34641C4.29488 9.73266 4.69988 9.99656 5.16582 9.99656H9.77035C10.1655 9.99656 10.5166 9.80672 10.7383 9.51375C10.8958 9.61031 10.9886 9.77297 10.9811 9.96ZM4.89019 4.17844C4.89019 4.02609 5.01394 3.90234 5.16629 3.90234H9.77082C9.92316 3.90234 10.0469 4.02609 10.0469 4.17844V8.78297C10.0469 8.93531 9.92316 9.05906 9.77082 9.05906H5.16582C5.01347 9.05906 4.88972 8.93531 4.88972 8.78297V4.17844H4.89019ZM6.03394 18.9281C5.13066 19.6762 3.76941 19.6767 2.87222 18.9291C1.99613 18.1992 1.68301 16.8872 2.17472 16.0097H3.27488C2.80426 16.9842 2.88207 17.6789 3.50832 18.1744C4.07879 18.6253 4.84988 18.6202 5.41379 18.1608C6.02644 17.6616 6.10004 16.9627 5.63222 16.0177C5.66316 16.0097 5.69176 15.9961 5.72035 15.9961C6.05644 15.9947 6.393 15.9952 6.72254 15.9952C7.22176 16.8834 6.90722 18.2044 6.03394 18.9281ZM3.9616 16.9866C3.96347 16.7166 4.18472 16.4934 4.45097 16.492C4.71582 16.4906 4.94035 16.7147 4.94363 16.9833C4.94738 17.2598 4.74019 17.4755 4.46551 17.4816C4.1791 17.4881 3.95926 17.2725 3.9616 16.9866ZM16.465 16.4794H9.87816C9.6016 16.1695 9.36816 15.8522 9.07988 15.5972C8.60691 15.18 8.03269 14.9873 7.39801 14.9873C5.37019 14.9873 3.34238 14.9873 1.31504 14.9873C1.22269 14.9873 1.13082 14.9873 1.01222 14.9873C1.04832 14.6461 1.07785 14.3297 1.11582 14.0142C1.15801 13.6655 1.18144 13.3111 1.26113 12.9703C1.45051 12.1617 2.17707 11.5622 3.00582 11.4975C3.13847 11.4872 3.2716 11.4825 3.40472 11.4825C5.52629 11.4816 7.64785 11.482 9.76988 11.482C9.86316 11.482 9.95644 11.482 10.0722 11.482C10.3647 12.6675 10.6511 13.8263 10.9371 14.985C11.0322 15.3712 11.1846 15.4959 11.5755 15.4964C12.7497 15.4978 13.9244 15.4978 15.0986 15.4983C15.1614 15.4983 15.2238 15.4945 15.2866 15.4959C15.6161 15.5034 15.8458 15.3806 16.0333 15.083C17.5038 12.7509 17.7761 10.2947 16.848 7.70156C16.8222 7.62984 16.7955 7.55859 16.7646 7.47469H17.6636C18.5988 9.23484 19.4852 11.0128 19.5457 13.0748C17.8108 13.5722 16.7903 14.7033 16.465 16.4794ZM17.5183 16.4897C17.53 15.5733 18.4418 14.4895 19.4786 14.1403C20.6163 13.7573 21.9907 14.1103 22.6689 14.9878C22.0394 14.9878 21.4455 14.9691 20.853 14.9925C20.1283 15.0211 19.5138 15.2953 19.1022 15.922C18.8458 16.312 18.4797 16.4742 18.0316 16.4888C17.8605 16.4939 17.6894 16.4897 17.5183 16.4897ZM20.9913 16.988C20.9936 17.2509 20.7677 17.4783 20.5005 17.482C20.2235 17.4858 20.0078 17.28 20.0013 17.0053C19.9947 16.7255 20.2221 16.4892 20.4949 16.4916C20.7546 16.4939 20.9889 16.7288 20.9913 16.988ZM22.4791 18.5077C21.8496 19.3242 20.8193 19.6706 19.8208 19.4016C18.9377 19.1634 18.1671 18.3441 18.07 17.5345C18.3841 17.4675 18.6991 17.4005 19.0305 17.3302C19.3422 18.4556 20.396 18.7247 21.1061 18.4186C22.0258 18.022 22.2452 17.1178 21.6686 16.0073H22.7636C23.1541 16.6711 23.0238 17.8017 22.4791 18.5077Z" fill="#68727D"/>
<path d="M5.40363 12.9746C4.77035 12.9694 4.13754 12.9694 3.50426 12.9746C3.1691 12.9774 2.95066 13.1841 2.9502 13.4813C2.94973 13.7789 3.16723 13.9857 3.50098 13.9918C3.81363 13.9974 4.12629 13.9932 4.43895 13.9932C4.75957 13.9932 5.07973 13.9974 5.40035 13.9922C5.73457 13.9866 5.95395 13.7813 5.95488 13.4846C5.95535 13.1869 5.73691 12.9774 5.40363 12.9746Z" fill="#68727D"/>
</g>
<defs>
<clipPath id="clip0_2266_1457">
<rect width="24" height="24" fill="white"/>
</clipPath>
</defs>
</svg>
