<svg width="18" height="18" viewBox="0 0 18 18" fill="none" xmlns="http://www.w3.org/2000/svg">
<g clip-path="url(#clip0_598_2777)">
<path d="M12.2848 12.2816C12.1097 11.1896 11.5071 10.4559 10.5065 10.0481C10.4745 9.38081 10.1265 8.98812 9.58257 8.99831C9.05519 9.00815 8.71275 9.40964 8.69517 10.0474C7.69527 10.4555 7.0909 11.1871 6.91264 12.3019C6.29069 12.2418 5.70355 12.4401 5.10938 12.6753V7.21167H14.087V12.5586C13.4517 12.8666 12.8069 13.1798 12.1618 13.492C11.8531 13.6414 11.5349 13.7739 11.2368 13.9423C10.9597 14.0988 10.6735 14.1206 10.3536 14.0879C10.5322 13.6987 10.56 13.3095 10.335 12.8982C10.5768 12.8982 10.7913 12.8982 11.0061 12.8982C11.3999 12.8982 11.7933 12.8982 12.1871 12.8982C12.4448 12.8982 12.5679 12.8194 12.597 12.6373C12.6234 12.4735 12.5211 12.3557 12.2845 12.2819L12.2848 12.2816Z" fill="#252525"/>
<path d="M4.20494 17.6974V13.492C4.42925 13.441 4.66059 13.4358 4.87857 13.3644C5.29204 13.2294 5.70585 13.0961 6.12001 12.9643C6.27541 12.9151 6.43574 12.8972 6.59922 12.8975C7.48662 12.8986 8.37366 12.8972 9.26106 12.8982C9.64323 12.8989 9.89988 13.1461 9.89848 13.5064C9.89672 13.8488 9.63198 14.0963 9.26247 14.0974C8.61274 14.0988 7.96266 14.0981 7.31294 14.0985C7.26301 14.0985 7.21168 14.0935 7.16316 14.1023C6.99968 14.1315 6.90651 14.2366 6.90264 14.398C6.89877 14.5653 7.00495 14.6595 7.16211 14.6933C7.2159 14.7049 7.27426 14.6975 7.33052 14.6975C8.49883 14.6975 9.66749 14.6965 10.8358 14.6993C10.9641 14.6993 11.0794 14.6747 11.1951 14.6188C12.3005 14.0826 13.4069 13.549 14.5137 13.0163C14.6361 12.9576 14.7535 12.8842 14.8997 12.8894C15.1986 12.9003 15.3807 13.1904 15.252 13.4583C15.1975 13.5722 15.116 13.6678 15.0305 13.7588C13.884 14.9809 12.6978 16.1607 11.3611 17.1792C11.0777 17.3951 10.7746 17.581 10.4694 17.7645C10.0549 18.0142 9.60596 18.017 9.14679 17.9864C8.39933 17.9365 7.65116 17.8974 6.9044 17.8433C6.00997 17.7783 5.11765 17.6781 4.20459 17.6967L4.20494 17.6974Z" fill="#252525"/>
<path d="M14.1091 2.9982C14.0637 2.51832 13.8689 2.14848 13.4393 1.93051C13.2582 1.83875 13.0652 1.79797 12.8627 1.79832C11.8818 1.79867 10.9005 1.79867 9.9196 1.79867C9.8528 1.79867 9.78635 1.79867 9.68018 1.79867C9.98289 1.40949 10.2993 1.08711 10.6516 0.800939C11.1371 0.406486 11.6687 0.103791 12.3012 0.016955C12.3568 0.00922064 12.4127 0.00148626 12.4682 0.000783136C13.3247 -0.00695124 14.1759 0.0700409 15.0288 0.136135C15.8807 0.201877 16.7291 0.322111 17.5869 0.299963C17.9037 0.291877 17.9993 0.394182 17.9993 0.70883C17.9993 1.6461 17.9997 2.58336 17.9993 3.52063C17.9993 3.78992 17.8928 3.9193 17.6298 3.89258C17.1056 3.83949 16.6549 4.01246 16.2101 4.26242C15.809 4.48778 15.392 4.68817 14.9314 4.77395C14.8379 4.79117 14.7458 4.79645 14.6523 4.7968C13.8837 4.7982 13.1151 4.79926 12.3466 4.79785C11.9679 4.79715 11.7007 4.54473 11.7007 4.19492C11.7007 3.84582 11.9697 3.59867 12.3501 3.59867C13.0062 3.59867 13.6622 3.59867 14.3186 3.59867C14.5644 3.59867 14.7054 3.48266 14.6997 3.28754C14.6945 3.10051 14.5609 2.99961 14.3176 2.9982C14.2553 2.9982 14.1931 2.9982 14.1091 2.9982Z" fill="#252525"/>
<path d="M3.59921 15.6037C3.59921 16.2723 3.59921 16.941 3.59921 17.6097C3.59921 17.8948 3.50112 17.9967 3.22231 17.9967C2.27866 17.9978 1.33502 17.9982 0.391366 17.9978C0.0967397 17.9978 0.000405973 17.9004 0.000405973 17.6051C5.43901e-05 16.2614 -0.000297193 14.9181 0.000405973 13.5744C0.000405973 13.2946 0.0995524 13.1983 0.386444 13.1979C1.33009 13.1976 2.27374 13.1972 3.21739 13.1979C3.50147 13.1979 3.59921 13.296 3.59921 13.579C3.59956 14.254 3.59921 14.929 3.59921 15.6037Z" fill="#252525"/>
<path d="M13.4857 2.99861C13.0866 2.99861 12.6876 2.99509 12.2886 2.99931C11.6051 3.0067 11.0724 3.56814 11.1013 4.25158C11.1086 4.43228 11.1617 4.60455 11.2443 4.7849H5.72485C5.68758 4.74447 5.70164 4.69806 5.70129 4.65658C5.70024 4.10673 5.69883 3.55689 5.70129 3.00705C5.7027 2.65724 5.95478 2.3992 6.29898 2.39884C8.49216 2.39744 10.6857 2.39779 12.8789 2.3992C13.242 2.3992 13.4889 2.64177 13.4853 2.99861H13.4857ZM9.59929 2.99861V2.99966C9.31838 2.99966 9.03746 2.99826 8.7569 3.00002C8.5347 3.00177 8.40321 3.11287 8.39969 3.29603C8.39618 3.47498 8.534 3.59697 8.75233 3.59767C9.32014 3.60013 9.88794 3.60013 10.4561 3.59873C10.672 3.59802 10.8042 3.47674 10.7999 3.29111C10.7961 3.10935 10.6734 3.00107 10.461 2.99931C10.1741 2.99685 9.88689 2.99861 9.59999 2.99861H9.59929Z" fill="#252525"/>
<path d="M13.5893 5.40942C13.7198 5.80317 13.8485 6.19095 13.981 6.59067H5.21851C5.35 6.19306 5.47797 5.80599 5.60911 5.40942H13.5893Z" fill="#252525"/>
<path d="M9.02106 10.5876C9.40183 10.8668 9.78787 10.87 10.175 10.5926C10.8876 10.7132 11.6365 11.5622 11.6597 12.2871H7.54688C7.56902 11.6117 8.19836 10.7842 9.02071 10.5876H9.02106Z" fill="#252525"/>
<path d="M9.59347 9.59972C9.7566 9.59585 9.89337 9.72382 9.89935 9.88554C9.90568 10.0536 9.7675 10.1956 9.59804 10.1956C9.43842 10.1956 9.30306 10.0599 9.30201 9.8989C9.30095 9.73261 9.42682 9.60323 9.59347 9.59937V9.59972Z" fill="#252525"/>
</g>
<defs>
<clipPath id="clip0_598_2777">
<rect width="18" height="18" fill="white"/>
</clipPath>
</defs>
</svg>
