<svg width="24" height="24" viewBox="0 0 24 24" fill="none" xmlns="http://www.w3.org/2000/svg">
<g clip-path="url(#clip0_163_1468)">
<path d="M20.3677 12.5588C20.1562 10.9008 19.6284 9.33891 18.8095 7.8886C18.067 7.8886 17.3522 7.8886 16.6214 7.8886C17.475 10.492 17.1558 12.9178 15.6478 15.1688C14.2284 15.1688 12.8409 15.1688 11.4497 15.1688C11.1853 14.122 10.9237 13.0875 10.6603 12.0464C10.5553 12.0464 10.4747 12.0464 10.3936 12.0464C8.39859 12.045 6.40406 12.0431 4.40906 12.0422C4.12969 12.0422 3.86109 11.993 3.5939 11.9081C3.09094 11.7488 2.7225 11.4145 2.40375 11.0161C1.30359 11.2467 0.56203 11.8748 0.268592 12.9478C0.0843733 13.6223 0.0693733 14.332 0.00515457 15.0286C-0.0393767 15.5152 0.17203 15.7134 0.66328 15.7134C2.83781 15.7148 5.01281 15.7144 7.18734 15.7177C7.83094 15.7186 8.37328 15.9619 8.82797 16.4166C9.07453 16.6631 9.22312 16.9688 9.35625 17.2711C11.6222 17.2711 13.8675 17.2711 16.0987 17.2711C16.3406 14.6283 17.7502 13.0673 20.3677 12.5588ZM4.53234 14.5036C4.21219 14.5092 3.89156 14.505 3.57094 14.5045C3.25828 14.5045 2.94562 14.5092 2.63297 14.5031C2.29922 14.497 2.08125 14.2903 2.08219 13.9927C2.08265 13.6955 2.30109 13.4883 2.63625 13.4859C3.26953 13.4808 3.90234 13.4808 4.53562 13.4859C4.86937 13.4888 5.08781 13.6983 5.08687 13.9959C5.08547 14.2927 4.86656 14.498 4.53234 14.5036Z" fill="#FC4704"/>
<path d="M4.41093 11.0044C5.39952 11.0086 6.38812 11.0053 7.37671 11.0053C7.37671 11.0058 7.37671 11.0063 7.37671 11.0067C8.38171 11.0067 9.38671 11.0109 10.3917 11.0053C10.9308 11.0025 11.4173 10.5834 11.4764 10.0894C11.5434 9.53016 11.2341 9.03985 10.7016 8.88235C10.5426 8.83547 10.3767 8.82328 10.2103 8.81438C10.1939 9.21094 9.86812 9.52781 9.46733 9.52781H4.8628C4.45171 9.52781 4.11796 9.19453 4.11796 8.78297V8.48203C4.10812 8.48438 4.09827 8.48578 4.08796 8.48813C3.3853 8.6625 3.05905 9.28875 3.10218 9.80344C3.16124 10.507 3.71155 11.0011 4.41093 11.0044Z" fill="#FC4704"/>
<path d="M19.8431 16.4817C19.8867 16.4227 19.9369 16.3687 19.9828 16.3111C20.3194 15.8925 20.7652 15.7191 21.292 15.7209C21.9459 15.7228 22.6003 15.7073 23.2533 15.7275C23.5472 15.7364 23.7689 15.623 23.9859 15.4603C23.2978 14.1216 21.7045 13.3102 19.9931 13.7208C18.3075 14.1253 17.0873 15.668 17.1834 17.288C17.5087 17.288 17.8181 17.2781 18.127 17.2898C18.8419 17.317 19.4166 17.0597 19.8431 16.4817Z" fill="#FC4704"/>
<path d="M5.6011 16.7648C5.77594 17.5444 5.5725 18.1744 5.02969 18.5569C4.49719 18.9319 3.79688 18.9605 3.26297 18.593C2.61563 18.1472 2.43797 17.5181 2.63391 16.7611C2.10235 16.7611 1.58063 16.7611 1.03922 16.7611C0.787972 17.7741 1.29235 19.192 2.39016 19.9027C3.56907 20.6662 5.08828 20.5795 6.14438 19.6852C7.08563 18.8883 7.43813 17.6062 7.18641 16.7648C6.6586 16.7648 6.13078 16.7648 5.6011 16.7648Z" fill="#FC4704"/>
<path d="M23.9442 16.7105C23.4216 16.7906 22.8923 16.7283 22.3655 16.762C22.4517 17.7741 22.1887 18.3553 21.5151 18.6595C20.9634 18.9089 20.1764 18.9333 19.4981 18.0731C19.0022 18.2761 18.4776 18.3567 17.9306 18.3192C18.3469 19.6566 19.9247 20.7103 21.6066 20.2978C23.242 19.8961 24.2522 18.2742 23.9442 16.7105Z" fill="#FC4704"/>
<path d="M16.2623 6.81609C16.6547 6.81984 17.0466 6.81703 17.4389 6.81703C17.4389 6.8175 17.4389 6.81844 17.4389 6.81891C17.8556 6.81891 18.2723 6.82406 18.6891 6.8175C19.0608 6.81141 19.282 6.65156 19.2928 6.315C19.3153 5.59734 19.3139 4.87828 19.2947 4.16016C19.2862 3.85453 19.073 3.67734 18.7636 3.65906C18.4303 3.63938 18.0989 3.63656 17.7661 3.69984C16.6237 3.91688 15.69 4.96594 15.6244 6.12375C15.5977 6.58547 15.8034 6.81141 16.2623 6.81609Z" fill="#FC4704"/>
<path d="M21.3975 5.16281C21.3623 4.57078 20.8969 4.07062 20.355 4.05609C20.355 4.8614 20.355 5.64797 20.355 6.43687C21.0061 6.34687 21.4359 5.81203 21.3975 5.16281Z" fill="#FC4704"/>
<path d="M13.4934 6.28453C13.8497 6.30563 14.2083 6.28969 14.5987 6.28969C14.5941 5.92735 14.6606 5.58891 14.7281 5.2275C14.3048 5.2275 13.913 5.21485 13.5225 5.23172C13.23 5.24438 13.0059 5.49235 13.0041 5.75813C13.0031 6.01031 13.2202 6.26813 13.4934 6.28453Z" fill="#FC4704"/>
<path d="M4.65234 17.2655C4.64577 16.9814 4.39968 16.7513 4.1039 16.7527C3.82781 16.7536 3.58593 16.9931 3.58406 17.2669C3.58218 17.5439 3.83765 17.7984 4.11843 17.7984C4.39874 17.7989 4.65843 17.5392 4.65234 17.2655Z" fill="#FC4704"/>
<path d="M20.8688 16.7531C20.5819 16.7498 20.3536 16.9688 20.3456 17.2538C20.3377 17.5472 20.5645 17.7891 20.8575 17.798C21.1505 17.8073 21.3881 17.5763 21.39 17.2809C21.3909 16.9823 21.1683 16.7564 20.8688 16.7531Z" fill="#FC4704"/>
<path d="M4.87969 9.0436H9.45141C9.61266 9.0436 9.74391 8.91282 9.74391 8.7511V4.19954C9.74391 4.03829 9.61313 3.90704 9.45141 3.90704H4.87969C4.71844 3.90704 4.58719 4.03782 4.58719 4.19954V8.7511C4.58719 8.91282 4.71797 9.0436 4.87969 9.0436Z" fill="#FC4704"/>
</g>
<defs>
<clipPath id="clip0_163_1468">
<rect width="24" height="24" fill="white"/>
</clipPath>
</defs>
</svg>
