<svg width="25" height="24" viewBox="0 0 25 24" fill="none" xmlns="http://www.w3.org/2000/svg">
<g clip-path="url(#clip0_168_2152)">
<path d="M24.5 18.0197C24.402 18.3605 24.3228 18.7083 24.1334 19.0163C23.5583 19.9514 22.7352 20.4572 21.6252 20.4572C15.5581 20.4586 9.49109 20.4474 3.42453 20.4656C2.07125 20.4699 0.807969 19.5356 0.548281 18.1467C0.539375 18.1003 0.538906 18.0534 0.5 18.0197C0.5 17.8167 0.5 17.6133 0.5 17.4103C4.05922 17.4122 7.61844 17.4141 11.1772 17.4155C15.5947 17.4169 20.0127 17.4174 24.4302 17.4183C24.4531 17.4183 24.4766 17.4131 24.4995 17.4103C24.5 17.6138 24.5 17.8167 24.5 18.0197Z" fill="#FC4704"/>
<path d="M12.4916 16.035C9.01625 16.035 5.54047 16.0327 2.06515 16.0402C1.84156 16.0406 1.79562 15.9759 1.81015 15.7655C1.91281 14.2645 2.30375 12.8456 3.00781 11.5172C4.08125 9.49173 5.64312 7.95985 7.68312 6.91173C8.68015 6.39938 9.73906 6.08344 10.8373 5.88891C11.105 5.84157 11.3778 5.81813 11.6492 5.79985C11.7777 5.79094 11.8048 5.73798 11.7987 5.62454C11.787 5.40751 11.8648 5.12719 11.757 4.99032C11.6403 4.84173 11.3473 4.94766 11.1322 4.94438C10.5889 4.93641 10.5889 4.94157 10.588 4.38938C10.5875 4.15501 10.5927 3.92063 10.5852 3.68673C10.5819 3.57704 10.6142 3.53438 10.7286 3.53438C11.908 3.53719 13.0873 3.53719 14.2667 3.53438C14.3797 3.53391 14.4134 3.57516 14.4116 3.68579C14.4069 4.05282 14.4069 4.41985 14.4148 4.78688C14.4177 4.91438 14.3694 4.94579 14.2508 4.94344C13.9541 4.93688 13.6573 4.94673 13.3606 4.93923C13.2387 4.93594 13.1947 4.97157 13.1998 5.09673C13.2087 5.30719 13.1342 5.55329 13.2205 5.71969C13.3175 5.90766 13.5955 5.82329 13.7942 5.8486C15.0556 6.00891 16.2561 6.36329 17.3858 6.95157C19.5036 8.05501 21.087 9.67969 22.145 11.8205C22.6555 12.8531 22.9597 13.9472 23.1266 15.0816C23.1659 15.3506 23.1636 15.6253 23.187 15.8967C23.1959 16.0003 23.1608 16.035 23.0581 16.0327C22.8397 16.028 22.6208 16.0341 22.4023 16.0341C19.0986 16.0341 15.7948 16.0341 12.4911 16.0341C12.4916 16.0345 12.4916 16.0345 12.4916 16.035ZM5.33984 14.3892C5.45797 14.4019 5.46031 14.4028 5.50953 14.1848C5.72047 13.2595 6.09031 12.4153 6.76297 11.7267C6.85343 11.6344 6.83047 11.5763 6.75547 11.4938C6.5464 11.2627 6.33406 11.033 6.14234 10.7869C6.00359 10.6088 5.90328 10.6031 5.74484 10.7677C4.85093 11.6958 4.37609 12.8278 4.1075 14.0648C4.085 14.168 4.11547 14.2153 4.23359 14.2299C4.60343 14.2744 4.9714 14.3349 5.33984 14.3892Z" fill="#FC4704"/>
</g>
<defs>
<clipPath id="clip0_168_2152">
<rect width="24" height="24" fill="white" transform="translate(0.5)"/>
</clipPath>
</defs>
</svg>
