<svg width="25" height="24" viewBox="0 0 25 24" fill="none" xmlns="http://www.w3.org/2000/svg">
<g clip-path="url(#clip0_2266_1463)">
<path d="M0.5 16.0074C0.867031 16.0093 1.23406 16.0065 1.60109 16.0154C1.74453 16.0191 1.80781 15.9849 1.81672 15.8241C1.92219 13.8671 2.53438 12.0737 3.63969 10.463C4.87578 8.66209 6.51078 7.34115 8.54891 6.52553C9.53797 6.1299 10.5641 5.90912 11.6183 5.80459C11.7847 5.78818 11.8072 5.72256 11.7992 5.58662C11.7908 5.44647 11.7828 5.30397 11.8006 5.16522C11.8259 4.96553 11.735 4.93037 11.562 4.93928C11.3127 4.95193 11.0619 4.93318 10.8125 4.94678C10.6419 4.95615 10.5763 4.91115 10.5842 4.72881C10.5983 4.40162 10.5973 4.07256 10.5833 3.7449C10.5763 3.58037 10.6217 3.53256 10.7881 3.53397C11.6628 3.54193 12.5375 3.53725 13.4122 3.53725C13.6934 3.53725 13.9747 3.54193 14.2555 3.53584C14.3741 3.5335 14.4186 3.56584 14.4158 3.69381C14.4073 4.05287 14.4055 4.4124 14.4181 4.77147C14.4238 4.9299 14.3586 4.94912 14.2264 4.94584C13.9377 4.93787 13.6484 4.95006 13.3597 4.94115C13.2345 4.9374 13.1928 4.97818 13.2013 5.10006C13.2097 5.21678 13.2031 5.33443 13.2031 5.45115C13.2031 5.79662 13.2027 5.80225 13.5444 5.83131C14.9258 5.9485 16.228 6.33756 17.4505 6.9849C19.5444 8.0935 21.1091 9.71725 22.1534 11.8458C22.6578 12.8738 22.9569 13.9608 23.128 15.0868C23.1641 15.3249 23.1781 15.5677 23.1823 15.8087C23.1847 15.9526 23.2137 16.0215 23.3759 16.0163C23.75 16.0046 24.125 16.0088 24.4995 16.0065C24.4995 16.6782 24.4995 17.3504 24.4995 18.0221C24.485 18.0493 24.463 18.0746 24.4578 18.1032C24.193 19.5076 23.0548 20.4577 21.6223 20.4577C15.5483 20.4591 9.47375 20.4516 3.39969 20.4643C2.15984 20.4671 1.02922 19.6763 0.64625 18.5297C0.59 18.3615 0.597031 18.1768 0.5 18.0216C0.5 17.3508 0.5 16.6791 0.5 16.0074ZM12.4766 16.013C12.4766 16.0144 12.4766 16.0158 12.4766 16.0168C15.1016 16.0168 17.7266 16.0168 20.3516 16.0168C20.7734 16.0168 21.1953 16.0112 21.6172 16.0163C21.7466 16.0177 21.7967 15.9844 21.7812 15.8452C21.7067 15.1641 21.6073 14.4891 21.4105 13.8305C20.8452 11.9401 19.7811 10.3829 18.2361 9.16693C16.9911 8.18725 15.5783 7.57272 14.0052 7.31631C12.905 7.13725 11.8119 7.14709 10.7253 7.35803C9.05234 7.6824 7.57531 8.41834 6.30594 9.56022C5.29906 10.4658 4.52328 11.5383 3.98 12.7787C3.55484 13.749 3.32187 14.7657 3.22438 15.818C3.20703 16.0069 3.28156 16.0158 3.43062 16.0154C6.44516 16.0121 9.46062 16.013 12.4766 16.013ZM12.4906 17.4352C12.4906 17.4366 12.4906 17.438 12.4906 17.4394C9.12453 17.4394 5.75891 17.4394 2.39281 17.4394C1.83406 17.4394 1.81859 17.4591 1.97047 18.008C2.15047 18.6582 2.70969 19.0547 3.45359 19.0547C9.47469 19.0552 15.4958 19.0547 21.5169 19.0552C22.393 19.0552 22.9353 18.5996 23.0802 17.739C23.1284 17.4516 23.1148 17.4357 22.8223 17.4357C19.3789 17.4352 15.935 17.4352 12.4906 17.4352Z" fill="#68727D"/>
<path d="M5.77757 14.9274C5.38898 14.8697 5.02851 14.813 4.66663 14.7647C4.5396 14.7479 4.51335 14.6794 4.53726 14.5735C4.81898 13.3065 5.30835 12.1458 6.25101 11.2154C6.35085 11.1165 6.41132 11.0813 6.51913 11.2149C6.74413 11.4938 6.98835 11.7577 7.22695 12.0258C7.28929 12.0962 7.32773 12.1477 7.23773 12.2368C6.52616 12.9399 6.1657 13.8258 5.94773 14.7793C5.91632 14.9138 5.87132 14.9508 5.77757 14.9274Z" fill="#68727D"/>
</g>
<defs>
<clipPath id="clip0_2266_1463">
<rect width="24" height="24" fill="white" transform="translate(0.5)"/>
</clipPath>
</defs>
</svg>
