<svg width="16" height="16" viewBox="0 0 16 16" fill="none" xmlns="http://www.w3.org/2000/svg">
<g clip-path="url(#clip0_2191_13)">
<path d="M1.13728 11.2781L0.418533 13.7188L0.0310334 15.0375C-0.0470916 15.3032 0.0247834 15.5875 0.218533 15.7813C0.412283 15.975 0.696658 16.0469 0.959158 15.9719L2.28103 15.5813L4.72166 14.8625C5.04666 14.7688 5.34978 14.6125 5.61541 14.4094L5.62478 14.4156L5.64041 14.3906C5.68416 14.3563 5.72478 14.3219 5.76541 14.2875C5.80916 14.25 5.84978 14.2094 5.89041 14.1688L15.3967 4.66565C16.081 3.98127 16.1654 2.92815 15.6529 2.15002C15.581 2.04065 15.4935 1.9344 15.3967 1.83752L14.1654 0.603149C13.3842 -0.178101 12.1185 -0.178101 11.3373 0.603149L1.83103 10.1094C1.75291 10.1875 1.67791 10.2719 1.60916 10.3594L1.58416 10.375L1.59041 10.3844C1.38728 10.65 1.23416 10.9531 1.13728 11.2781ZM11.9685 5.96877L6.16853 11.7688L4.61853 11.3813L4.23103 9.83127L10.031 4.03127L11.9685 5.96877ZM3.03103 11.2156L3.27166 12.1844C3.33728 12.4531 3.54978 12.6625 3.81853 12.7313L4.78728 12.9719L4.55603 13.3219C4.47478 13.3656 4.39041 13.4032 4.30291 13.4282L3.57166 13.6438L1.85603 14.1438L2.35916 12.4313L2.57478 11.7C2.59978 11.6125 2.63728 11.525 2.68103 11.4469L3.03103 11.2156ZM9.85291 6.8344C10.0467 6.64065 10.0467 6.3219 9.85291 6.12815C9.65916 5.9344 9.34041 5.9344 9.14666 6.12815L6.14666 9.12815C5.95291 9.3219 5.95291 9.64065 6.14666 9.8344C6.34041 10.0282 6.65916 10.0282 6.85291 9.8344L9.85291 6.8344Z" fill="#FC4704"/>
</g>
<defs>
<clipPath id="clip0_2191_13">
<rect width="16" height="16" fill="white"/>
</clipPath>
</defs>
</svg>
