<svg width="20" height="20" viewBox="0 0 20 20" fill="none" xmlns="http://www.w3.org/2000/svg">
<path d="M2.25 3.16662C1.83438 3.16662 1.5 3.50097 1.5 3.91656V9.41611C1.5 9.8317 1.83438 10.166 2.25 10.166H3.75C4.16563 10.166 4.5 10.5004 4.5 10.916V11.5159L6.33437 10.291C6.45625 10.2098 6.60313 10.166 6.75 10.166H10.75C11.1656 10.166 11.5 9.8317 11.5 9.41611V3.91656C11.5 3.50097 11.1656 3.16662 10.75 3.16662H2.25ZM0 3.91656C0 2.67292 1.00625 1.66675 2.25 1.66675H10.75C11.9937 1.66675 13 2.67292 13 3.91656V9.41611C13 10.6598 11.9937 11.6659 10.75 11.6659H6.97813L4.16563 13.5408C3.93438 13.6939 3.64062 13.7095 3.39687 13.5783C3.15312 13.447 3 13.1939 3 12.9158V11.6659H2.25C1.00625 11.6659 0 10.6598 0 9.41611V3.91656ZM8 12.6658H9.5V13.4158C9.5 13.8314 9.83438 14.1657 10.25 14.1657H13.25C13.3969 14.1657 13.5437 14.2095 13.6656 14.2907L15.5 15.5156V14.9157C15.5 14.5001 15.8344 14.1657 16.25 14.1657H17.75C18.1656 14.1657 18.5 13.8314 18.5 13.4158V7.91623C18.5 7.50064 18.1656 7.1663 17.75 7.1663H14V5.66642H17.75C18.9937 5.66642 20 6.67259 20 7.91623V13.4158C20 14.6594 18.9937 15.6656 17.75 15.6656H17V16.9155C17 17.1936 16.8469 17.4467 16.6031 17.5779C16.3594 17.7092 16.0625 17.6936 15.8344 17.5404L13.0219 15.6656H10.25C9.00625 15.6656 8 14.6594 8 13.4158V12.6658ZM4.62187 4.66963C4.79375 4.18842 5.25 3.86657 5.75938 3.86657H7.05C7.80625 3.86657 8.41562 4.47902 8.41562 5.23208C8.41562 5.72266 8.15312 6.17263 7.72813 6.41636L7 6.83507V6.84445C7 7.11942 6.775 7.34441 6.5 7.34441C6.225 7.34441 6 7.11942 6 6.84445V6.5476C6 6.36949 6.09688 6.20387 6.25 6.11326L7.23125 5.5508C7.34375 5.48518 7.41563 5.36332 7.41563 5.23208C7.41563 5.02897 7.25 4.86648 7.05 4.86648H5.75938C5.67188 4.86648 5.59375 4.92273 5.5625 5.00397L5.55312 5.0321C5.45937 5.29145 5.175 5.42894 4.91563 5.3352C4.65625 5.24145 4.51875 4.9571 4.6125 4.69775L4.62187 4.66963ZM5.79063 8.79116C5.78418 8.69426 5.79771 8.59707 5.83036 8.50561C5.86302 8.41416 5.91411 8.33038 5.98046 8.25947C6.04682 8.18856 6.12703 8.13203 6.21613 8.09338C6.30523 8.05473 6.40132 8.03479 6.49844 8.03479C6.59556 8.03479 6.69164 8.05473 6.78074 8.09338C6.86984 8.13203 6.95005 8.18856 7.01641 8.25947C7.08277 8.33038 7.13386 8.41416 7.16651 8.50561C7.19917 8.59707 7.21269 8.69426 7.20625 8.79116C7.21269 8.88806 7.19917 8.98525 7.16651 9.07671C7.13386 9.16817 7.08277 9.25195 7.01641 9.32286C6.95005 9.39377 6.86984 9.4503 6.78074 9.48894C6.69164 9.52759 6.59556 9.54753 6.49844 9.54753C6.40132 9.54753 6.30523 9.52759 6.21613 9.48894C6.12703 9.4503 6.04682 9.39377 5.98046 9.32286C5.91411 9.25195 5.86302 9.16817 5.83036 9.07671C5.79771 8.98525 5.78418 8.88806 5.79063 8.79116Z" fill="#16191D"/>
</svg>
