<svg width="18" height="18" viewBox="0 0 18 18" fill="none" xmlns="http://www.w3.org/2000/svg">
<g clip-path="url(#clip0_598_2759)">
<path d="M13.6058 18H4.42969C4.4093 17.9902 4.38926 17.9737 4.36781 17.9709C3.12715 17.8165 2.08371 16.6695 2.10621 15.3077C2.12555 14.1252 2.10621 12.9423 2.1143 11.7594C2.11535 11.5987 2.0598 11.5354 1.91531 11.4954C1.22766 11.3055 0.718242 10.8828 0.351562 10.278C0.164531 9.96965 0.0861328 9.6233 0 9.27942V8.64649C0.0523828 8.60816 0.0551953 8.54804 0.0706641 8.49248C0.236602 7.88839 0.879961 7.38205 1.50047 7.3817C6.49055 7.37994 11.4803 7.37959 16.4704 7.38275C17.2775 7.38346 17.9793 8.08706 17.9993 8.89474C18.0292 10.0938 17.2596 11.1525 16.0914 11.4897C15.9149 11.5407 15.8864 11.6156 15.8875 11.777C15.8938 12.9718 15.8917 14.167 15.8903 15.3618C15.8889 16.4518 15.2311 17.4142 14.22 17.8197C14.0203 17.8998 13.8069 17.9269 13.6058 17.9997V18ZM15.891 9.44679C15.891 9.73301 15.8955 10.0196 15.8889 10.3058C15.8861 10.4225 15.911 10.4524 16.0218 10.3965C16.5723 10.1201 16.8813 9.67464 16.9432 9.06492C16.9812 8.68904 16.7421 8.43868 16.3659 8.43587C16.2664 8.43517 16.1666 8.44255 16.0682 8.43376C15.9367 8.42216 15.8815 8.45943 15.8878 8.60535C15.8998 8.88524 15.8913 9.16619 15.8913 9.44679H15.891ZM2.10938 9.43554H2.11008C2.11008 9.26605 2.11008 9.09657 2.11008 8.92709C2.10984 8.58976 1.93945 8.42638 1.59891 8.43692C1.29023 8.44642 1.07156 8.6581 1.05504 8.96401C1.02586 9.5041 1.45793 10.1754 1.95645 10.3772C2.07352 10.4247 2.11324 10.4064 2.11113 10.2777C2.10621 9.99708 2.10973 9.71648 2.10973 9.43589L2.10938 9.43554Z" fill="#252525"/>
<path d="M8.19846 0.564846C8.99791 0.594382 9.6244 0.930183 10.0326 1.62921C10.1064 1.75545 10.1647 1.76951 10.2917 1.71149C11.5091 1.15593 12.7294 0.606337 13.949 0.0560453C14.239 -0.074759 14.56 0.0321348 14.6816 0.295853C14.8121 0.579262 14.6971 0.879198 14.3895 1.0209C13.211 1.56346 12.0308 2.1018 10.8513 2.64119C8.49729 3.71751 6.14287 4.79348 3.78846 5.8698C3.50158 6.00096 3.21541 6.13422 2.92678 6.26116C2.61881 6.39689 2.31225 6.2907 2.18744 6.01045C2.06299 5.73126 2.19131 5.43836 2.50209 5.29525C3.70162 4.74249 4.90045 4.18798 6.10209 3.64015C6.23112 3.58108 6.26803 3.53045 6.2167 3.38452C5.75932 2.08421 6.5999 0.737493 7.97029 0.566604C8.04518 0.55711 8.12252 0.565549 8.19846 0.565549V0.564846Z" fill="#252525"/>
<path d="M11.2375 6.32489C10.8905 6.32805 10.6644 6.16068 10.6201 5.88079C10.579 5.62234 10.7411 5.3653 11.0079 5.29146C11.1243 5.25911 11.2501 5.26298 11.3704 5.24329C11.8928 5.15749 12.032 5.0404 12.0928 4.41311C12.1206 4.12864 12.1325 3.84277 12.2131 3.5678C12.4321 2.81884 12.8961 2.46511 13.7188 2.32059C13.8563 2.29633 13.9951 2.27664 14.1368 2.28367C14.4304 2.29879 14.6578 2.52805 14.6585 2.81497C14.6589 3.09522 14.4416 3.3178 14.1516 3.33889C14.0408 3.34698 13.9294 3.35612 13.8211 3.37898C13.3771 3.47251 13.2206 3.65817 13.1809 4.12724C13.1552 4.42928 13.1447 4.73273 13.0638 5.02845C12.8547 5.79429 12.3178 6.16877 11.5676 6.28797C11.453 6.30625 11.3384 6.34001 11.2371 6.32524L11.2375 6.32489Z" fill="#252525"/>
<path d="M14.3955 6.32472C14.0517 6.32824 13.8239 6.15524 13.7841 5.87464C13.7472 5.61479 13.9142 5.36198 14.1758 5.28638C14.2943 5.25227 14.4184 5.26809 14.5404 5.24594C15.0635 5.15065 15.1869 5.03672 15.2572 4.42595C15.2917 4.12531 15.3082 3.82503 15.3918 3.53001C15.5799 2.8672 16.0394 2.51206 16.6828 2.35981C16.8751 2.31445 17.0713 2.28104 17.2706 2.28386C17.5754 2.28772 17.8152 2.51417 17.8215 2.80391C17.8278 3.09752 17.6025 3.32361 17.2892 3.33908C17.125 3.34717 16.9658 3.38163 16.8079 3.42417C16.4529 3.51982 16.3917 3.81518 16.3467 4.11617C16.3059 4.38692 16.3147 4.66224 16.2486 4.93229C16.0535 5.72872 15.5472 6.18759 14.726 6.28886C14.6103 6.30327 14.4968 6.33949 14.3955 6.32508V6.32472Z" fill="#252525"/>
</g>
<defs>
<clipPath id="clip0_598_2759">
<rect width="18" height="18" fill="white"/>
</clipPath>
</defs>
</svg>
