<svg width="25" height="25" viewBox="0 0 25 25" fill="none" xmlns="http://www.w3.org/2000/svg">
<g clip-path="url(#clip0_715_2701)">
<path d="M12.9707 3.2207C15.5566 3.2207 18.0365 4.24793 19.865 6.07641C21.6935 7.90489 22.7207 10.3848 22.7207 12.9707C22.7207 15.5566 21.6935 18.0365 19.865 19.865C18.0365 21.6935 15.5566 22.7207 12.9707 22.7207C10.3848 22.7207 7.90489 21.6935 6.07641 19.865C4.24793 18.0365 3.2207 15.5566 3.2207 12.9707C3.2207 10.3848 4.24793 7.90489 6.07641 6.07641C7.90489 4.24793 10.3848 3.2207 12.9707 3.2207ZM12.9707 24.9707C16.1533 24.9707 19.2055 23.7064 21.456 21.456C23.7064 19.2055 24.9707 16.1533 24.9707 12.9707C24.9707 9.78811 23.7064 6.73586 21.456 4.48542C19.2055 2.23499 16.1533 0.970703 12.9707 0.970703C9.78811 0.970703 6.73586 2.23499 4.48542 4.48542C2.23499 6.73586 0.970703 9.78811 0.970703 12.9707C0.970703 16.1533 2.23499 19.2055 4.48542 21.456C6.73586 23.7064 9.78811 24.9707 12.9707 24.9707ZM11.0957 16.7207C10.4723 16.7207 9.9707 17.2223 9.9707 17.8457C9.9707 18.4691 10.4723 18.9707 11.0957 18.9707H14.8457C15.4691 18.9707 15.9707 18.4691 15.9707 17.8457C15.9707 17.2223 15.4691 16.7207 14.8457 16.7207H14.4707V12.5957C14.4707 11.9723 13.9691 11.4707 13.3457 11.4707H11.0957C10.4723 11.4707 9.9707 11.9723 9.9707 12.5957C9.9707 13.2191 10.4723 13.7207 11.0957 13.7207H12.2207V16.7207H11.0957ZM12.9707 9.9707C13.3685 9.9707 13.7501 9.81267 14.0314 9.53136C14.3127 9.25006 14.4707 8.86853 14.4707 8.4707C14.4707 8.07288 14.3127 7.69135 14.0314 7.41004C13.7501 7.12874 13.3685 6.9707 12.9707 6.9707C12.5729 6.9707 12.1913 7.12874 11.91 7.41004C11.6287 7.69135 11.4707 8.07288 11.4707 8.4707C11.4707 8.86853 11.6287 9.25006 11.91 9.53136C12.1913 9.81267 12.5729 9.9707 12.9707 9.9707Z" fill="#EFA22F"/>
</g>
<defs>
<clipPath id="clip0_715_2701">
<rect width="24" height="24" fill="white" transform="translate(0.970703 0.970703)"/>
</clipPath>
</defs>
</svg>
