<svg width="14" height="14" viewBox="0 0 14 14" fill="none" xmlns="http://www.w3.org/2000/svg">
<g clip-path="url(#clip0_513_2278)">
<path d="M7 1.3125C8.50842 1.3125 9.95506 1.91172 11.0217 2.97833C12.0883 4.04494 12.6875 5.49158 12.6875 7C12.6875 8.50842 12.0883 9.95506 11.0217 11.0217C9.95506 12.0883 8.50842 12.6875 7 12.6875C5.49158 12.6875 4.04494 12.0883 2.97833 11.0217C1.91172 9.95506 1.3125 8.50842 1.3125 7C1.3125 5.49158 1.91172 4.04494 2.97833 2.97833C4.04494 1.91172 5.49158 1.3125 7 1.3125ZM7 14C8.85652 14 10.637 13.2625 11.9497 11.9497C13.2625 10.637 14 8.85652 14 7C14 5.14348 13.2625 3.36301 11.9497 2.05025C10.637 0.737498 8.85652 0 7 0C5.14348 0 3.36301 0.737498 2.05025 2.05025C0.737498 3.36301 0 5.14348 0 7C0 8.85652 0.737498 10.637 2.05025 11.9497C3.36301 13.2625 5.14348 14 7 14ZM5.90625 9.1875C5.54258 9.1875 5.25 9.48008 5.25 9.84375C5.25 10.2074 5.54258 10.5 5.90625 10.5H8.09375C8.45742 10.5 8.75 10.2074 8.75 9.84375C8.75 9.48008 8.45742 9.1875 8.09375 9.1875H7.875V6.78125C7.875 6.41758 7.58242 6.125 7.21875 6.125H5.90625C5.54258 6.125 5.25 6.41758 5.25 6.78125C5.25 7.14492 5.54258 7.4375 5.90625 7.4375H6.5625V9.1875H5.90625ZM7 5.25C7.23206 5.25 7.45462 5.15781 7.61872 4.99372C7.78281 4.82962 7.875 4.60706 7.875 4.375C7.875 4.14294 7.78281 3.92038 7.61872 3.75628C7.45462 3.59219 7.23206 3.5 7 3.5C6.76794 3.5 6.54538 3.59219 6.38128 3.75628C6.21719 3.92038 6.125 4.14294 6.125 4.375C6.125 4.60706 6.21719 4.82962 6.38128 4.99372C6.54538 5.15781 6.76794 5.25 7 5.25Z" fill="black"/>
</g>
<defs>
<clipPath id="clip0_513_2278">
<rect width="14" height="14" fill="white"/>
</clipPath>
</defs>
</svg>
