<svg width="20" height="20" viewBox="0 0 20 20" fill="none" xmlns="http://www.w3.org/2000/svg">
<path d="M4.5 5.66675C4.5 5.00371 4.76339 4.36782 5.23223 3.89898C5.70107 3.43014 6.33696 3.16675 7 3.16675C7.66304 3.16675 8.29893 3.43014 8.76777 3.89898C9.23661 4.36782 9.5 5.00371 9.5 5.66675C9.5 6.32979 9.23661 6.96567 8.76777 7.43452C8.29893 7.90336 7.66304 8.16675 7 8.16675C6.33696 8.16675 5.70107 7.90336 5.23223 7.43452C4.76339 6.96567 4.5 6.32979 4.5 5.66675ZM11 5.66675C11 4.60588 10.5786 3.58847 9.82843 2.83832C9.07828 2.08818 8.06087 1.66675 7 1.66675C5.93913 1.66675 4.92172 2.08818 4.17157 2.83832C3.42143 3.58847 3 4.60588 3 5.66675C3 6.72761 3.42143 7.74503 4.17157 8.49518C4.92172 9.24532 5.93913 9.66675 7 9.66675C8.06087 9.66675 9.07828 9.24532 9.82843 8.49518C10.5786 7.74503 11 6.72761 11 5.66675ZM8.42813 12.6667C10.4813 12.6667 12.1813 14.1886 12.4594 16.1667H1.54062C1.81875 14.1886 3.51875 12.6667 5.57188 12.6667H8.42813ZM5.57188 11.1667C2.49375 11.1667 0 13.6605 0 16.7386C0 17.2511 0.415625 17.6667 0.928125 17.6667H13.0719C13.5844 17.6667 14 17.2511 14 16.7386C14 13.6605 11.5063 11.1667 8.42813 11.1667H7H5.57188ZM15.75 11.4167C15.75 11.8324 16.0844 12.1667 16.5 12.1667C16.9156 12.1667 17.25 11.8324 17.25 11.4167V9.41675H19.25C19.6656 9.41675 20 9.08237 20 8.66675C20 8.25112 19.6656 7.91675 19.25 7.91675H17.25V5.91675C17.25 5.50112 16.9156 5.16675 16.5 5.16675C16.0844 5.16675 15.75 5.50112 15.75 5.91675V7.91675H13.75C13.3344 7.91675 13 8.25112 13 8.66675C13 9.08237 13.3344 9.41675 13.75 9.41675H15.75V11.4167Z" fill="#16191D"/>
</svg>
