<svg width="14" height="14" viewBox="0 0 14 14" fill="none" xmlns="http://www.w3.org/2000/svg">
<g clip-path="url(#clip0_459_2141)">
<path d="M6.01289 3.0625H10.9375V2.1875H6.01289L5.57539 2.625L6.01289 3.0625ZM4.02773 2.93398C3.8582 2.76445 3.8582 2.48555 4.02773 2.31602L5.21172 1.13203C5.37578 0.967969 5.59727 0.875 5.82969 0.875H11.375C11.859 0.875 12.25 1.26602 12.25 1.75V3.5C12.25 3.98398 11.859 4.375 11.375 4.375H5.83242C5.6 4.375 5.37852 4.28203 5.21445 4.11797L4.03047 2.93398H4.02773ZM1.75 3.5C1.51794 3.5 1.29538 3.40781 1.13128 3.24372C0.967187 3.07962 0.875 2.85706 0.875 2.625C0.875 2.39294 0.967187 2.17038 1.13128 2.00628C1.29538 1.84219 1.51794 1.75 1.75 1.75C1.98206 1.75 2.20462 1.84219 2.36872 2.00628C2.53281 2.17038 2.625 2.39294 2.625 2.625C2.625 2.85706 2.53281 3.07962 2.36872 3.24372C2.20462 3.40781 1.98206 3.5 1.75 3.5ZM1.75 7.875C1.51794 7.875 1.29538 7.78281 1.13128 7.61872C0.967187 7.45462 0.875 7.23206 0.875 7C0.875 6.76794 0.967187 6.54538 1.13128 6.38128C1.29538 6.21719 1.51794 6.125 1.75 6.125C1.98206 6.125 2.20462 6.21719 2.36872 6.38128C2.53281 6.54538 2.625 6.76794 2.625 7C2.625 7.23206 2.53281 7.45462 2.36872 7.61872C2.20462 7.78281 1.98206 7.875 1.75 7.875ZM0.875 11.375C0.875 11.1429 0.967187 10.9204 1.13128 10.7563C1.29538 10.5922 1.51794 10.5 1.75 10.5C1.98206 10.5 2.20462 10.5922 2.36872 10.7563C2.53281 10.9204 2.625 11.1429 2.625 11.375C2.625 11.6071 2.53281 11.8296 2.36872 11.9937C2.20462 12.1578 1.98206 12.25 1.75 12.25C1.51794 12.25 1.29538 12.1578 1.13128 11.9937C0.967187 11.8296 0.875 11.6071 0.875 11.375ZM6.01289 11.8125H10.9375V10.9375H6.01289L5.57539 11.375L6.01289 11.8125ZM4.02773 11.684C3.8582 11.5145 3.8582 11.2355 4.02773 11.066L5.21172 9.88203C5.37578 9.71797 5.59727 9.625 5.82969 9.625H11.375C11.859 9.625 12.25 10.016 12.25 10.5V12.25C12.25 12.734 11.859 13.125 11.375 13.125H5.83242C5.6 13.125 5.37852 13.032 5.21445 12.868L4.03047 11.684H4.02773ZM5.57539 7L6.01289 7.4375H12.6875V6.5625H6.01289L5.57539 7ZM5.21172 8.49297L4.02773 7.30898C3.8582 7.13945 3.8582 6.86055 4.02773 6.69102L5.21172 5.50703C5.37578 5.34297 5.59727 5.25 5.82969 5.25H13.125C13.609 5.25 14 5.64102 14 6.125V7.875C14 8.35898 13.609 8.75 13.125 8.75H5.83242C5.6 8.75 5.37852 8.65703 5.21445 8.49297H5.21172Z" fill="#252525"/>
</g>
<defs>
<clipPath id="clip0_459_2141">
<rect width="14" height="14" fill="white"/>
</clipPath>
</defs>
</svg>
