<svg width="25" height="24" viewBox="0 0 25 24" fill="none" xmlns="http://www.w3.org/2000/svg">
<g clip-path="url(#clip0_1968_2257)">
<path d="M12.5 0C13.1234 0 13.625 0.501562 13.625 1.125V3.07031C17.6938 3.57656 20.9234 6.80625 21.4297 10.875H23.375C23.9984 10.875 24.5 11.3766 24.5 12C24.5 12.6234 23.9984 13.125 23.375 13.125H21.4297C20.9234 17.1938 17.6938 20.4234 13.625 20.9297V22.875C13.625 23.4984 13.1234 24 12.5 24C11.8766 24 11.375 23.4984 11.375 22.875V20.9297C7.30625 20.4234 4.07656 17.1938 3.57031 13.125H1.625C1.00156 13.125 0.5 12.6234 0.5 12C0.5 11.3766 1.00156 10.875 1.625 10.875H3.57031C4.07656 6.80625 7.30625 3.57656 11.375 3.07031V1.125C11.375 0.501562 11.8766 0 12.5 0ZM5.75 12C5.75 13.7902 6.46116 15.5071 7.72703 16.773C8.9929 18.0388 10.7098 18.75 12.5 18.75C14.2902 18.75 16.0071 18.0388 17.273 16.773C18.5388 15.5071 19.25 13.7902 19.25 12C19.25 10.2098 18.5388 8.4929 17.273 7.22703C16.0071 5.96116 14.2902 5.25 12.5 5.25C10.7098 5.25 8.9929 5.96116 7.72703 7.22703C6.46116 8.4929 5.75 10.2098 5.75 12ZM14.75 12C14.75 11.4033 14.5129 10.831 14.091 10.409C13.669 9.98705 13.0967 9.75 12.5 9.75C11.9033 9.75 11.331 9.98705 10.909 10.409C10.4871 10.831 10.25 11.4033 10.25 12C10.25 12.5967 10.4871 13.169 10.909 13.591C11.331 14.0129 11.9033 14.25 12.5 14.25C13.0967 14.25 13.669 14.0129 14.091 13.591C14.5129 13.169 14.75 12.5967 14.75 12ZM8 12C8 10.8065 8.47411 9.66193 9.31802 8.81802C10.1619 7.97411 11.3065 7.5 12.5 7.5C13.6935 7.5 14.8381 7.97411 15.682 8.81802C16.5259 9.66193 17 10.8065 17 12C17 13.1935 16.5259 14.3381 15.682 15.182C14.8381 16.0259 13.6935 16.5 12.5 16.5C11.3065 16.5 10.1619 16.0259 9.31802 15.182C8.47411 14.3381 8 13.1935 8 12Z" fill="#252525"/>
</g>
<defs>
<clipPath id="clip0_1968_2257">
<rect width="24" height="24" fill="white" transform="translate(0.5)"/>
</clipPath>
</defs>
</svg>
