<svg width="16" height="16" viewBox="0 0 16 16" fill="none" xmlns="http://www.w3.org/2000/svg">
<path d="M12.5 6.01557C12.5 3.52475 10.4844 1.50389 8 1.50389C5.51562 1.50389 3.5 3.52475 3.5 6.01557C3.5 6.40407 3.64062 7.00563 3.97812 7.80771C4.30625 8.58472 4.77188 9.44319 5.30625 10.3111C6.19688 11.7586 7.22813 13.1559 8 14.1522C8.775 13.1559 9.80625 11.7586 10.6938 10.3111C11.2281 9.44319 11.6938 8.58472 12.0219 7.80771C12.3594 7.00563 12.5 6.40407 12.5 6.01557ZM14 6.01557C14 8.7539 10.3438 13.629 8.74062 15.6405C8.35625 16.1198 7.64375 16.1198 7.25938 15.6405C5.65625 13.629 2 8.7539 2 6.01557C2 2.69447 4.6875 0 8 0C11.3125 0 14 2.69447 14 6.01557ZM9 6.01557C9 5.74966 8.89464 5.49465 8.70711 5.30663C8.51957 5.1186 8.26522 5.01297 8 5.01297C7.73478 5.01297 7.48043 5.1186 7.29289 5.30663C7.10536 5.49465 7 5.74966 7 6.01557C7 6.28147 7.10536 6.53649 7.29289 6.72451C7.48043 6.91253 7.73478 7.01816 8 7.01816C8.26522 7.01816 8.51957 6.91253 8.70711 6.72451C8.89464 6.53649 9 6.28147 9 6.01557ZM5.5 6.01557C5.5 5.35081 5.76339 4.71327 6.23223 4.24321C6.70107 3.77316 7.33696 3.50908 8 3.50908C8.66304 3.50908 9.29893 3.77316 9.76777 4.24321C10.2366 4.71327 10.5 5.35081 10.5 6.01557C10.5 6.68033 10.2366 7.31786 9.76777 7.78792C9.29893 8.25798 8.66304 8.52205 8 8.52205C7.33696 8.52205 6.70107 8.25798 6.23223 7.78792C5.76339 7.31786 5.5 6.68033 5.5 6.01557Z" fill="#252525"/>
</svg>
