<svg width="16" height="20" viewBox="0 0 16 20" fill="none" xmlns="http://www.w3.org/2000/svg">
<path d="M13.625 7.51946C13.625 4.40593 11.1055 1.87986 8 1.87986C4.89453 1.87986 2.375 4.40593 2.375 7.51946C2.375 8.00509 2.55078 8.75704 2.97266 9.75963C3.38281 10.7309 3.96484 11.804 4.63281 12.8888C5.74609 14.6982 7.03516 16.4449 8 17.6903C8.96875 16.4449 10.2578 14.6982 11.3672 12.8888C12.0352 11.804 12.6172 10.7309 13.0273 9.75963C13.4492 8.75704 13.625 8.00509 13.625 7.51946ZM15.5 7.51946C15.5 10.9424 10.9297 17.0363 8.92578 19.5506C8.44531 20.1498 7.55469 20.1498 7.07422 19.5506C5.07031 17.0363 0.5 10.9424 0.5 7.51946C0.5 3.36809 3.85938 0 8 0C12.1406 0 15.5 3.36809 15.5 7.51946ZM9.25 7.51946C9.25 7.18708 9.1183 6.86831 8.88388 6.63328C8.64946 6.39825 8.33152 6.26622 8 6.26622C7.66848 6.26622 7.35054 6.39825 7.11612 6.63328C6.8817 6.86831 6.75 7.18708 6.75 7.51946C6.75 7.85184 6.8817 8.17061 7.11612 8.40564C7.35054 8.64066 7.66848 8.7727 8 8.7727C8.33152 8.7727 8.64946 8.64066 8.88388 8.40564C9.1183 8.17061 9.25 7.85184 9.25 7.51946ZM4.875 7.51946C4.875 6.68851 5.20424 5.89159 5.79029 5.30402C6.37634 4.71645 7.1712 4.38635 8 4.38635C8.8288 4.38635 9.62366 4.71645 10.2097 5.30402C10.7958 5.89159 11.125 6.68851 11.125 7.51946C11.125 8.35041 10.7958 9.14733 10.2097 9.7349C9.62366 10.3225 8.8288 10.6526 8 10.6526C7.1712 10.6526 6.37634 10.3225 5.79029 9.7349C5.20424 9.14733 4.875 8.35041 4.875 7.51946Z" fill="#16191D"/>
</svg>
