<svg width="20" height="20" viewBox="0 0 20 20" fill="none" xmlns="http://www.w3.org/2000/svg">
<path d="M10.4165 1.875C8.68994 1.875 7.2915 3.27344 7.2915 5V7.5H16.6665C18.0454 7.5 19.1665 8.62109 19.1665 10V17.5C19.1665 18.8789 18.0454 20 16.6665 20H4.1665C2.7876 20 1.6665 18.8789 1.6665 17.5V10C1.6665 8.62109 2.7876 7.5 4.1665 7.5H5.4165V5C5.4165 2.23828 7.65479 0 10.4165 0C12.6431 0 14.5259 1.45312 15.1743 3.46094C15.3345 3.95312 15.0649 4.48047 14.5688 4.64062C14.0728 4.80078 13.5493 4.53125 13.3892 4.03516C12.9868 2.78125 11.8071 1.875 10.4165 1.875ZM4.1665 9.375C3.82275 9.375 3.5415 9.65625 3.5415 10V17.5C3.5415 17.8438 3.82275 18.125 4.1665 18.125H16.6665C17.0103 18.125 17.2915 17.8438 17.2915 17.5V10C17.2915 9.65625 17.0103 9.375 16.6665 9.375H4.1665ZM11.6665 14.6875H9.1665C8.64697 14.6875 8.229 14.2695 8.229 13.75C8.229 13.2305 8.64697 12.8125 9.1665 12.8125H11.6665C12.186 12.8125 12.604 13.2305 12.604 13.75C12.604 14.2695 12.186 14.6875 11.6665 14.6875Z" fill="#16191D"/>
</svg>
