<svg width="20" height="20" viewBox="0 0 20 20" fill="none" xmlns="http://www.w3.org/2000/svg">
<g clip-path="url(#clip0_848_3305)">
<path d="M19.7266 10.6641C20.0937 10.2969 20.0937 9.70312 19.7266 9.33984L14.7266 4.33594C14.3594 3.96875 13.7656 3.96875 13.4023 4.33594C13.0391 4.70312 13.0352 5.29687 13.4023 5.66016L16.8008 9.05859L7.1875 9.0625C6.66797 9.0625 6.25 9.48047 6.25 10C6.25 10.5195 6.66797 10.9375 7.1875 10.9375H16.8008L13.4023 14.3359C13.0352 14.7031 13.0352 15.2969 13.4023 15.6602C13.7695 16.0234 14.3633 16.0273 14.7266 15.6602L19.7266 10.6641ZM6.5625 3.125C7.08203 3.125 7.5 2.70703 7.5 2.1875C7.5 1.66797 7.08203 1.25 6.5625 1.25H3.4375C1.53906 1.25 0 2.78906 0 4.6875V15.3125C0 17.2109 1.53906 18.75 3.4375 18.75H6.5625C7.08203 18.75 7.5 18.332 7.5 17.8125C7.5 17.293 7.08203 16.875 6.5625 16.875H3.4375C2.57422 16.875 1.875 16.1758 1.875 15.3125V4.6875C1.875 3.82422 2.57422 3.125 3.4375 3.125H6.5625Z" fill="#16191D"/>
</g>
<defs>
<clipPath id="clip0_848_3305">
<rect width="20" height="20" fill="white"/>
</clipPath>
</defs>
</svg>
