<svg width="16" height="16" viewBox="0 0 16 16" fill="none" xmlns="http://www.w3.org/2000/svg">
<path d="M13.2 3.86675C13.2 4.74925 13.9175 5.46675 14.8 5.46675V8.66675C13.9175 8.66675 13.2 9.38425 13.2 10.2667H5.2C5.2 9.38425 4.4825 8.66675 3.6 8.66675V5.46675C4.4825 5.46675 5.2 4.74925 5.2 3.86675H13.2ZM4 2.66675C3.1175 2.66675 2.4 3.38425 2.4 4.26675V9.86675C2.4 10.7492 3.1175 11.4667 4 11.4667H14.4C15.2825 11.4667 16 10.7492 16 9.86675V4.26675C16 3.38425 15.2825 2.66675 14.4 2.66675H4ZM11.2 7.06675C11.2 6.53631 10.9893 6.02761 10.6142 5.65253C10.2391 5.27746 9.73043 5.06675 9.2 5.06675C8.66957 5.06675 8.16086 5.27746 7.78579 5.65253C7.41071 6.02761 7.2 6.53631 7.2 7.06675C7.2 7.59718 7.41071 8.10589 7.78579 8.48096C8.16086 8.85603 8.66957 9.06675 9.2 9.06675C9.73043 9.06675 10.2391 8.85603 10.6142 8.48096C10.9893 8.10589 11.2 7.59718 11.2 7.06675ZM1.2 4.86675C1.2 4.53425 0.9325 4.26675 0.6 4.26675C0.2675 4.26675 0 4.53425 0 4.86675V10.8667C0 12.5242 1.3425 13.8667 3 13.8667H13C13.3325 13.8667 13.6 13.5992 13.6 13.2667C13.6 12.9342 13.3325 12.6667 13 12.6667H3C2.005 12.6667 1.2 11.8617 1.2 10.8667V4.86675Z" fill="#252525"/>
</svg>
