<svg width="20" height="20" viewBox="0 0 20 20" fill="none" xmlns="http://www.w3.org/2000/svg">
<path d="M8.15169 3.85547C7.33147 5.1875 6.85887 6.75781 6.85887 8.4375C6.85887 12.2656 9.31171 15.5234 12.7332 16.707C12.2489 16.8164 11.745 16.875 11.2256 16.875C7.44474 16.875 4.37478 13.8008 4.37478 10C4.37478 7.30859 5.91367 4.98437 8.1556 3.85547H8.15169ZM10.5772 1.27734C6.05818 1.60937 2.5 5.38672 2.5 10C2.5 14.832 6.4058 18.75 11.2295 18.75C13.0964 18.75 14.8228 18.1641 16.2445 17.1641C16.3187 17.1133 16.389 17.0586 16.4593 17.0078C16.6468 16.8672 16.8265 16.7187 17.0022 16.5625C17.1077 16.4687 17.2092 16.375 17.3108 16.2773C17.5061 16.0859 17.5569 15.7891 17.4319 15.5469C17.3069 15.3047 17.0374 15.168 16.7679 15.2148C16.6234 15.2383 16.4789 15.2617 16.3343 15.2773C16.139 15.2969 15.9399 15.3125 15.7367 15.3164C15.6899 15.3164 15.6391 15.3164 15.5922 15.3164C15.5883 15.3164 15.5844 15.3164 15.5805 15.3164C11.7997 15.3086 8.73756 12.2344 8.73756 8.44141C8.73756 6.30078 9.7101 4.39062 11.2412 3.12891C11.2802 3.09375 11.3232 3.0625 11.3662 3.02734C11.5224 2.90234 11.6864 2.78516 11.8544 2.67578C11.9755 2.59766 12.1005 2.51953 12.2293 2.44922C12.4676 2.3125 12.5887 2.03906 12.5301 1.77344C12.4715 1.50781 12.245 1.30859 11.9716 1.28516C11.831 1.27344 11.6942 1.26562 11.5536 1.26172C11.4482 1.25781 11.3388 1.25781 11.2334 1.25781C11.1045 1.25781 10.9795 1.26172 10.8506 1.26563C10.7608 1.26953 10.6709 1.27344 10.5811 1.28125L10.5772 1.27734Z" fill="#16191D"/>
</svg>
