<svg width="24" height="24" viewBox="0 0 24 24" fill="none" xmlns="http://www.w3.org/2000/svg">
<g clip-path="url(#clip0_168_2295)">
<path d="M10.092 22.1064C10.092 22.8336 9.5016 23.424 8.7744 23.424H1.5576C0.830398 23.424 0.239998 22.8336 0.239998 22.1064V15.24C0.239998 14.5128 0.830398 13.9224 1.5576 13.9224H8.7744C9.5016 13.9224 10.092 14.5128 10.092 15.24V22.1064Z" fill="#FC4704"/>
<path d="M10.092 1.95359C10.092 1.22639 9.5016 0.635986 8.7744 0.635986H1.5576C0.830398 0.635986 0.239998 1.22639 0.239998 1.95359V8.81999C0.239998 9.54719 0.830398 10.1376 1.5576 10.1376H8.7744C9.5016 10.1376 10.092 9.54719 10.092 8.81999V1.95359Z" fill="#FC4704"/>
<path d="M13.908 22.1064C13.908 22.8336 14.4984 23.424 15.2256 23.424H22.4424C23.1696 23.424 23.76 22.8336 23.76 22.1064V15.24C23.76 14.5128 23.1696 13.9224 22.4424 13.9224H15.2256C14.4984 13.9224 13.908 14.5128 13.908 15.24V22.1064Z" fill="#FC4704"/>
<path d="M13.9272 5.39759C13.9272 8.06159 16.0848 10.2192 18.7488 10.2192C21.4128 10.2192 23.5704 8.06159 23.5704 5.39759C23.5704 2.73599 21.4104 0.575989 18.7488 0.575989C16.0848 0.575989 13.9272 2.73599 13.9272 5.39759Z" fill="#FC4704"/>
</g>
<defs>
<clipPath id="clip0_168_2295">
<rect width="24" height="24" fill="white"/>
</clipPath>
</defs>
</svg>
