<svg width="24" height="24" viewBox="0 0 24 24" fill="none" xmlns="http://www.w3.org/2000/svg">
<g clip-path="url(#clip0_2266_1482)">
<path d="M8.99543 12.9888H2.27063C1.15223 12.9888 0.240234 13.8984 0.240234 15.0192V21.4176C0.240234 22.536 1.14983 23.448 2.27063 23.448H8.99543C10.1138 23.448 11.0258 22.5384 11.0258 21.4176V15.0192C11.0258 13.9008 10.1138 12.9888 8.99543 12.9888ZM9.42024 21.4176C9.42024 21.6528 9.23063 21.8424 8.99543 21.8424H2.27063C2.03543 21.8424 1.84583 21.6528 1.84583 21.4176V15.0192C1.84583 14.784 2.03543 14.5944 2.27063 14.5944H8.99543C9.23063 14.5944 9.42024 14.784 9.42024 15.0192V21.4176Z" fill="#68727D"/>
<path d="M8.99543 0.609619H2.27063C1.14983 0.609619 0.240234 1.51922 0.240234 2.64002V9.03842C0.240234 10.1568 1.14983 11.0688 2.27063 11.0688H8.99543C10.1138 11.0688 11.0258 10.1592 11.0258 9.03842V2.64002C11.0258 1.51922 10.1138 0.609619 8.99543 0.609619ZM9.42024 9.03602C9.42024 9.27122 9.23063 9.46082 8.99543 9.46082H2.27063C2.03543 9.46082 1.84583 9.27122 1.84583 9.03602V2.64002C1.84583 2.40482 2.03543 2.21522 2.27063 2.21522H8.99543C9.23063 2.21522 9.42024 2.40482 9.42024 2.64002V9.03602Z" fill="#68727D"/>
<path d="M21.7298 12.9888H15.005C13.8866 12.9888 12.9746 13.8984 12.9746 15.0192V21.4176C12.9746 22.536 13.8842 23.448 15.005 23.448H21.7298C22.8482 23.448 23.7602 22.5384 23.7602 21.4176V15.0192C23.7602 13.9008 22.8506 12.9888 21.7298 12.9888ZM22.157 21.4176C22.157 21.6528 21.9674 21.8424 21.7322 21.8424H15.005C14.7698 21.8424 14.5802 21.6528 14.5802 21.4176V15.0192C14.5802 14.784 14.7698 14.5944 15.005 14.5944H21.7298C21.965 14.5944 22.1546 14.784 22.1546 15.0192L22.157 21.4176Z" fill="#68727D"/>
<path d="M18.2885 11.1432C21.2069 11.1432 23.5829 8.76724 23.5829 5.84884C23.5829 2.93044 21.2069 0.554443 18.2885 0.554443C15.3701 0.554443 12.9941 2.93044 12.9941 5.84884C12.9941 8.76724 15.3701 11.1432 18.2885 11.1432ZM18.2885 2.15764C20.3237 2.15764 21.9797 3.81364 21.9797 5.84884C21.9797 7.88404 20.3237 9.54004 18.2885 9.54004C16.2533 9.54004 14.5973 7.88404 14.5973 5.84884C14.5997 3.81364 16.2533 2.15764 18.2885 2.15764Z" fill="#68727D"/>
</g>
<defs>
<clipPath id="clip0_2266_1482">
<rect width="24" height="24" fill="white"/>
</clipPath>
</defs>
</svg>
