<svg width="25" height="24" viewBox="0 0 25 24" fill="none" xmlns="http://www.w3.org/2000/svg">
<g clip-path="url(#clip0_168_2249)">
<path d="M3.40911 0C7.98673 0 12.5643 0 17.1415 0C17.1284 0.02625 17.1204 0.0571875 17.1012 0.0778125C16.1685 1.06641 15.7331 2.24391 15.7336 3.59906C15.7369 10.0945 15.7322 16.59 15.7425 23.0855C15.7434 23.5191 15.6183 23.8228 15.2199 24.0005H1.01883C0.703408 23.8364 0.5 23.6138 0.5 23.2228C0.504687 16.5872 0.495782 9.95109 0.510311 3.315C0.513123 2.05828 1.12194 1.10766 2.19241 0.451406C2.5697 0.220313 2.99339 0.123281 3.40911 0ZM10.7534 4.14047C9.03892 2.79281 7.00624 3.1725 5.8575 4.34625C4.6244 5.60625 4.47536 7.54031 5.49662 8.95031C6.53428 10.3823 8.38417 10.8502 9.99175 10.072C10.7332 9.71344 11.283 9.14578 11.6317 8.40094C12.1219 7.35375 12.0966 6.29859 11.5984 5.23172C11.934 4.905 12.2728 4.59281 12.5911 4.26094C12.8854 3.95344 12.8802 3.52594 12.6042 3.25828C12.3113 2.97422 11.8974 2.98734 11.5825 3.29859C11.305 3.57234 11.035 3.85359 10.7529 4.14047H10.7534ZM9.54978 16.0322C8.43385 16.0322 7.31839 16.0312 6.20245 16.0322C5.75346 16.0327 5.4296 16.3252 5.42491 16.7288C5.42022 17.1291 5.74877 17.4375 6.19214 17.4375C8.41557 17.4394 10.6395 17.4384 12.8629 17.4398C13.0147 17.4398 13.1568 17.407 13.2861 17.3306C13.5425 17.1788 13.6807 16.8581 13.6118 16.5891C13.5247 16.2464 13.2585 16.0336 12.8971 16.0327C11.7816 16.0298 10.6657 16.0317 9.54978 16.0317V16.0322ZM9.52588 13.2192C8.40901 13.2192 7.29261 13.2173 6.17574 13.2202C5.75252 13.2211 5.42538 13.5323 5.42538 13.9233C5.42538 14.3156 5.74971 14.6245 6.17761 14.625C8.41088 14.6273 10.6446 14.6264 12.8779 14.6269C13.0293 14.6269 13.1718 14.5941 13.2983 14.5106C13.557 14.3405 13.6793 14.0353 13.602 13.762C13.5041 13.4161 13.2491 13.2211 12.876 13.2202C11.7591 13.2178 10.6427 13.2192 9.52588 13.2192ZM9.52307 18.8447C8.4151 18.8447 7.30761 18.8438 6.19964 18.8447C5.75299 18.8447 5.42725 19.1414 5.42538 19.5445C5.4235 19.9458 5.75158 20.25 6.19496 20.25C8.41838 20.2514 10.6418 20.25 12.8652 20.2519C13.0171 20.2519 13.1596 20.2209 13.2875 20.1417C13.5547 19.9762 13.6822 19.6589 13.6001 19.3777C13.5008 19.0378 13.2542 18.8461 12.8938 18.8452C11.7704 18.8423 10.647 18.8442 9.52353 18.8442L9.52307 18.8447ZM3.31115 17.4384C3.69969 17.4427 4.02261 17.1173 4.0198 16.7241C4.01699 16.3458 3.69547 16.0308 3.31256 16.0317C2.93715 16.0327 2.61376 16.3575 2.61329 16.7344C2.61282 17.1094 2.9348 17.4342 3.31115 17.4384ZM3.30178 14.6255C3.68235 14.6363 4.01699 14.3072 4.0198 13.9209C4.02261 13.5506 3.69735 13.2239 3.32147 13.2192C2.95121 13.2145 2.62172 13.5375 2.61329 13.9134C2.60485 14.2828 2.92637 14.6152 3.30178 14.6259V14.6255ZM3.3224 18.8442C2.95074 18.8391 2.62125 19.1606 2.61329 19.5366C2.60532 19.9069 2.9259 20.2397 3.30084 20.2505C3.68141 20.2617 4.01652 19.9331 4.02027 19.5459C4.02355 19.1742 3.70063 18.8498 3.3224 18.8442Z" fill="#FC4704"/>
<path d="M21.0315 0C21.2757 0.101719 21.54 0.1275 21.7889 0.218906C23.0951 0.698906 24.025 1.99125 24.0273 3.375C24.032 6.31875 24.0292 9.2625 24.0283 12.2058C24.0283 12.7017 23.7438 12.982 23.2414 12.9825C21.4693 12.9839 19.6972 12.9844 17.9246 12.9839C17.4236 12.9839 17.1424 12.7027 17.1424 12.203C17.1415 9.26719 17.1401 6.33141 17.1424 3.39563C17.1433 1.86047 18.2682 0.448125 19.7605 0.095625C19.8729 0.0689062 19.9831 0.0323437 20.0942 0.00046875C20.4068 0.00046875 20.7189 0.00046875 21.0315 0.00046875V0Z" fill="#FC4704"/>
<path d="M9.72133 5.14266C9.30233 5.55094 8.89552 5.94751 8.44136 6.39001C8.34481 6.27891 8.2403 6.13407 8.11141 6.01594C7.79786 5.72813 7.37511 5.73188 7.10609 6.01079C6.838 6.28875 6.84784 6.71672 7.13983 7.01954C7.40511 7.29469 7.67741 7.56329 7.95018 7.83141C8.28576 8.16047 8.68836 8.16516 9.02675 7.83469C9.46215 7.40954 9.89053 6.97735 10.3184 6.54469C10.3723 6.48985 10.4061 6.41532 10.4647 6.32672C10.766 7.0111 10.4361 8.20594 9.51277 8.73797C8.56463 9.28407 7.35308 9.06422 6.69646 8.21344C6.01078 7.32469 6.08389 6.08297 6.86753 5.32079C7.65679 4.55251 8.87021 4.47047 9.7218 5.14313L9.72133 5.14266Z" fill="#FC4704"/>
</g>
<defs>
<clipPath id="clip0_168_2249">
<rect width="24" height="24" fill="white" transform="translate(0.5)"/>
</clipPath>
</defs>
</svg>
