<svg width="18" height="18" viewBox="0 0 18 18" fill="none" xmlns="http://www.w3.org/2000/svg">
<g clip-path="url(#clip0_598_2746)">
<path d="M10.5305 2.75848C10.8743 2.45865 11.2139 2.16374 11.5521 1.86707C12.1547 1.33876 12.7541 0.806241 13.3598 0.28145C13.8288 -0.125236 14.5351 -0.085165 14.9394 0.362647C15.3644 0.833306 15.3395 1.5356 14.8575 1.96338C13.6193 3.06252 12.3755 4.15569 11.1257 5.24183C10.6394 5.66433 9.94757 5.5979 9.52569 5.11283C9.01909 4.53004 8.51249 3.9469 8.01046 3.35989C7.56749 2.84213 7.5587 2.22419 7.97952 1.77709C8.42812 1.30045 9.19065 1.30186 9.63222 1.78693C9.86038 2.0379 10.0769 2.29977 10.2984 2.55636C10.3592 2.62666 10.4169 2.70048 10.5305 2.75848Z" fill="white"/>
<path d="M10.1202 16.2707C10.1191 16.8971 9.60198 17.4079 8.97796 17.398C8.34514 17.3882 7.8396 16.8788 7.84452 16.2567C7.84979 15.6419 8.36202 15.1393 8.98323 15.1389C9.61604 15.1389 10.1205 15.6412 10.1198 16.2707H10.1202Z" fill="white"/>
<path d="M12.8275 16.2603C12.8293 15.6385 13.3271 15.1418 13.9532 15.138C14.579 15.1341 15.0968 15.6438 15.1 16.2666C15.1032 16.886 14.5755 17.409 13.9564 17.3999C13.3204 17.3904 12.8254 16.8909 12.8272 16.2607L12.8275 16.2603Z" fill="white"/>
<path d="M17.9796 7.44785C17.8235 6.56804 17.1675 6.0299 16.2693 6.0299C12.8021 6.0299 9.33504 6.0299 5.86828 6.02884C5.77688 6.02884 5.68301 6.04571 5.59371 6.01092C5.58035 5.98033 5.56805 5.95397 5.55715 5.92691C5.3325 5.35115 5.13457 4.76309 4.87723 4.20245C4.48031 3.33635 3.80918 2.84741 2.8241 2.86393C2.2268 2.87377 1.62984 2.88467 1.03289 2.90154C0.62543 2.91279 0.195117 3.24672 0.073125 3.63723C0.0537891 3.69839 0.0425391 3.76166 0 3.81263V4.19928C0.0239062 4.26361 0.0502734 4.32758 0.0717188 4.39261C0.208828 4.81089 0.635977 5.13709 1.07684 5.14341C1.38129 5.14798 1.68574 5.13287 1.9902 5.13006C2.26441 5.12759 2.53828 5.12935 2.8241 5.12935C2.84766 5.18243 2.87543 5.23902 2.89828 5.29807C3.33633 6.43483 3.77297 7.57193 4.21137 8.70833C4.87406 10.4265 5.53781 12.1442 6.20156 13.862C6.38684 14.3418 6.77531 14.6213 7.29316 14.6223C9.61805 14.6262 11.9433 14.628 14.2682 14.6234C15.0163 14.622 15.5774 14.2322 15.8498 13.532C16.5294 11.7864 17.2016 10.0381 17.877 8.2911C17.9821 8.01869 18.0306 7.73467 17.98 7.44785H17.9796Z" fill="white"/>
</g>
<defs>
<clipPath id="clip0_598_2746">
<rect width="18" height="18" fill="white"/>
</clipPath>
</defs>
</svg>
