<svg width="25" height="24" viewBox="0 0 25 24" fill="none" xmlns="http://www.w3.org/2000/svg">
<path d="M18.1859 12.9895C18.124 13.088 18.1432 13.1644 18.1432 13.2375C18.1427 16.5455 18.1427 19.853 18.1427 23.1609C18.1427 23.738 17.883 23.9995 17.3092 23.9995C12.3342 23.9995 7.35965 24 2.38464 24C1.76628 24 1.50375 23.7389 1.50375 23.1211C1.50188 16.5722 1.5 10.0233 1.5 3.47438C1.5 1.80516 2.50372 0.511875 4.11971 0.0810938C4.39584 0.0075 4.67665 0 4.95935 0C10.0675 0.00140625 15.1756 -0.0009375 20.2838 0.0046875C21.9167 0.0065625 23.3793 1.31625 23.5964 2.93625C23.6287 3.17719 23.64 3.41625 23.64 3.65719C23.64 6.47344 23.64 9.28969 23.64 12.1059C23.64 12.7181 23.3718 12.9905 22.7591 12.9909C21.3175 12.9919 19.8759 12.99 18.4343 12.9895C18.3518 12.9895 18.2693 12.9895 18.1859 12.9895ZM2.92002 22.583H16.7391C16.7391 22.4808 16.7391 22.3983 16.7391 22.3158C16.7401 16.0758 16.7415 9.83578 16.7391 3.59578C16.7391 3.09984 16.8057 2.61797 16.9951 2.16047C17.1001 1.90641 17.2403 1.66734 17.3734 1.40391C17.3087 1.40391 17.2675 1.40391 17.2262 1.40391C13.1016 1.40391 8.97751 1.40344 4.85293 1.4025C4.68462 1.4025 4.52195 1.43484 4.36208 1.47984C3.45447 1.73391 2.92471 2.47125 2.92424 3.50766C2.92049 9.49781 2.92096 15.488 2.92002 21.4777C2.92002 21.8419 2.92002 22.2061 2.92002 22.583ZM22.1815 11.5622C22.2448 11.4975 22.2369 11.4366 22.2369 11.3794C22.2369 8.72297 22.2523 6.06656 22.2298 3.41062C22.2204 2.29031 21.2992 1.41 20.2186 1.40297C19.0588 1.39547 18.1474 2.31 18.1446 3.50437C18.139 6.1275 18.1423 8.75016 18.1423 11.3733C18.1423 11.43 18.1498 11.4862 18.1549 11.5627H22.1811L22.1815 11.5622Z" fill="#68727D"/>
<path d="M11.7707 4.13108C12.0585 3.83717 12.3286 3.54233 12.6188 3.26952C13.0571 2.85702 13.6783 3.04967 13.8156 3.6328C13.8747 3.88405 13.7716 4.08795 13.6023 4.26374C13.4406 4.43155 13.276 4.59702 13.1082 4.75874C12.9469 4.91436 12.7796 5.06436 12.6094 5.22233C13.1138 6.31264 13.1377 7.38327 12.6263 8.44077C12.2587 9.20061 11.6774 9.75608 10.9099 10.1151C9.40273 10.8197 7.56452 10.364 6.57065 9.03749C5.53786 7.65842 5.60537 5.7628 6.70191 4.50561C7.75908 3.29342 9.91889 2.67702 11.7707 4.13202V4.13108ZM9.50915 6.44202C9.74402 6.18233 9.92404 5.96295 10.1256 5.76608C10.331 5.56499 10.5569 5.38545 10.7806 5.19045C9.93107 4.49295 8.6967 4.55249 7.94238 5.26358C7.13181 6.02764 7.00195 7.25249 7.63906 8.11733C8.31556 9.03561 9.49321 9.29624 10.4777 8.75999C11.4181 8.24811 11.7688 7.05233 11.5105 6.39795C11.4702 6.38999 11.4528 6.41999 11.4294 6.44342C10.9578 6.91311 10.489 7.38608 10.0122 7.85108C9.70323 8.15202 9.32303 8.16561 9.00986 7.87545C8.69904 7.58717 8.399 7.28624 8.11209 6.97452C7.84722 6.68624 7.85894 6.26202 8.11209 6.00186C8.37041 5.73655 8.80734 5.7253 9.10456 5.99061C9.23349 6.10545 9.33756 6.24795 9.50961 6.44202H9.50915Z" fill="#68727D"/>
<path d="M11.2634 14.6217C10.1556 14.6217 9.04784 14.6236 7.94004 14.6208C7.47498 14.6199 7.17916 14.3869 7.13838 14.0025C7.0915 13.5605 7.41497 13.2145 7.89597 13.2099C8.55418 13.2033 9.21192 13.2075 9.87013 13.2075C11.3942 13.2075 12.9188 13.2089 14.4429 13.208C14.5765 13.208 14.7078 13.2136 14.8376 13.2525C15.1527 13.3477 15.359 13.6416 15.3374 13.972C15.3163 14.2955 15.065 14.5734 14.7359 14.6025C14.471 14.6255 14.2038 14.6189 13.9371 14.6194C13.0458 14.6213 12.1546 14.6199 11.2634 14.6199V14.6217Z" fill="#68727D"/>
<path d="M11.2541 16.0336C12.3201 16.0336 13.3857 16.0326 14.4518 16.035C14.5845 16.035 14.7214 16.0359 14.848 16.0687C15.1274 16.1414 15.3322 16.4283 15.3379 16.7217C15.343 17.0123 15.1442 17.3015 14.869 17.3911C14.7504 17.43 14.6267 17.445 14.5001 17.445C12.3183 17.444 10.1369 17.4459 7.95505 17.444C7.49186 17.444 7.17495 17.1905 7.13791 16.8065C7.10041 16.4128 7.36013 16.0748 7.75768 16.0467C8.11397 16.0214 8.47308 16.0331 8.83078 16.0326C9.63854 16.0312 10.4463 16.0326 11.2541 16.0326V16.034V16.0336Z" fill="#68727D"/>
<path d="M11.2301 18.8512C12.3459 18.8512 13.4621 18.8498 14.5779 18.8517C15.0345 18.8527 15.3435 19.1437 15.3383 19.5591C15.3336 19.9537 15.0144 20.2481 14.576 20.2486C12.3525 20.2509 10.1294 20.2509 7.9058 20.2495C7.45575 20.2495 7.13883 19.9537 7.13742 19.5441C7.13602 19.125 7.43559 18.8512 7.90768 18.8503C9.01501 18.8484 10.1228 18.8498 11.2301 18.8498V18.8512Z" fill="black"/>
<path d="M4.32739 13.9332C4.32364 13.5441 4.62555 13.2211 5.00435 13.2099C5.38502 13.1986 5.7296 13.5324 5.73382 13.9167C5.73803 14.295 5.42112 14.6124 5.03341 14.6185C4.64243 14.6246 4.33161 14.3227 4.32739 13.9332Z" fill="black"/>
<path d="M4.32833 16.7273C4.33161 16.3308 4.63071 16.0322 5.0231 16.0336C5.41503 16.035 5.74366 16.3673 5.73241 16.7503C5.72163 17.1201 5.38081 17.4469 5.01326 17.4398C4.63399 17.4323 4.32552 17.1112 4.32833 16.7278V16.7273Z" fill="black"/>
<path d="M4.32929 19.5436C4.33069 19.1442 4.62135 18.8536 5.02031 18.8527C5.41317 18.8517 5.74275 19.1784 5.73337 19.5595C5.72446 19.9313 5.39395 20.2505 5.01844 20.2495C4.64245 20.2486 4.32788 19.9266 4.32882 19.5436H4.32929Z" fill="black"/>
</svg>
