<svg width="24" height="24" viewBox="0 0 24 24" fill="none" xmlns="http://www.w3.org/2000/svg">
<g clip-path="url(#clip0_168_2204)">
<path d="M24 18.2545C23.5463 18.4219 23.1356 18.6773 22.7095 18.8991C19.5103 20.5631 16.3144 22.2333 13.1194 23.9053C12.9572 23.9902 12.8967 23.9991 12.8972 23.7816C12.9047 20.0742 12.9066 16.3673 12.9061 12.66C12.9061 12.5175 12.9459 12.4364 13.0791 12.3713C16.6491 10.6139 20.2172 8.85234 23.7858 7.09172C23.8542 7.05797 23.9156 7.00219 24.0005 7.00969C24 10.7583 24 14.5064 24 18.2545Z" fill="#FC4704"/>
<path d="M12.24 0.028595C12.8302 0.32297 13.4189 0.61922 14.01 0.911251C14.6522 1.22813 15.2972 1.54031 15.9403 1.85672C15.9928 1.8825 16.0819 1.89047 16.0781 1.96125C16.0748 2.025 15.9895 2.03719 15.9361 2.06438C12.4205 3.86297 8.90438 5.66109 5.38969 7.46109C5.29313 7.51031 5.21532 7.52625 5.10844 7.47328C3.76172 6.80766 2.41172 6.14813 1.06266 5.48578C1.01578 5.46281 0.937504 5.44922 0.944535 5.39297C0.948754 5.36063 1.02938 5.33625 1.07766 5.31235C4.58438 3.58125 8.09016 1.85063 11.5964 0.118595C11.6428 0.0956262 11.7033 0.0890637 11.7248 0.028595C11.8964 0.028595 12.068 0.028595 12.24 0.028595Z" fill="#FC4704"/>
<path d="M11.115 18.233C11.115 20.0831 11.1131 21.9328 11.1178 23.783C11.1183 23.9733 11.1042 24.022 10.905 23.9175C7.48266 22.1255 4.05797 20.3391 0.630003 18.5578C0.202971 18.3361 0.00562758 18.0141 0.00656508 17.5308C0.0112526 14.0883 0.00890883 10.6458 2.58316e-06 7.20374C-0.000466167 6.96843 0.0628151 6.99233 0.227346 7.0739C1.59282 7.75405 2.95969 8.43093 4.33125 9.09796C4.47703 9.16874 4.51172 9.24608 4.51125 9.39561C4.50563 10.6134 4.50516 11.8308 4.51032 13.0486C4.51313 13.7203 5.12485 14.1656 5.72016 13.9392C6.05813 13.8108 6.28969 13.4775 6.29063 13.1058C6.29297 12.1692 6.29578 11.2322 6.28875 10.2956C6.28735 10.1016 6.32766 10.0973 6.48985 10.1784C7.96688 10.913 9.44719 11.6409 10.9298 12.3633C11.0789 12.4359 11.1258 12.5203 11.1253 12.683C11.1192 14.5326 11.1216 16.3828 11.1216 18.233C11.1197 18.233 11.1173 18.233 11.115 18.233Z" fill="#FC4704"/>
<path d="M12.0084 10.8928C11.9611 10.8708 11.9184 10.852 11.8767 10.8314C10.4109 10.1062 8.94563 9.38109 7.48079 8.65406C7.41235 8.62031 7.35094 8.5725 7.28625 8.53172C7.35375 8.49468 7.42079 8.45625 7.48922 8.42109C10.9505 6.65062 14.4127 4.8825 17.8702 3.10547C18.0783 2.99859 18.2358 2.99203 18.4467 3.0975C19.9228 3.83625 21.4064 4.56047 22.8863 5.29172C22.9444 5.32031 23.0433 5.32875 23.0423 5.40515C23.0414 5.46562 22.9491 5.47734 22.8952 5.50406C19.3369 7.26797 15.7777 9.0314 12.2184 10.7944C12.1495 10.8291 12.0788 10.86 12.0084 10.8928Z" fill="#FC4704"/>
</g>
<defs>
<clipPath id="clip0_168_2204">
<rect width="24" height="24" fill="white"/>
</clipPath>
</defs>
</svg>
