<svg width="24" height="24" viewBox="0 0 24 24" fill="none" xmlns="http://www.w3.org/2000/svg">
<g clip-path="url(#clip0_2266_1469)">
<path d="M0.0351562 17.4268C0.0351562 13.6843 0.0351562 9.94132 0.0351562 6.19882C0.18375 6.04694 0.321094 5.88851 0.520313 5.78819C1.69641 5.1971 2.86922 4.59804 4.04156 3.99944C6.56719 2.70944 9.09281 1.41897 11.618 0.127568C11.8959 -0.0144629 12.1636 -0.00883787 12.443 0.134131C16.1072 2.00491 19.7719 3.87429 23.4403 5.7371C23.7 5.86929 23.9175 6.02116 24.0352 6.29257C24.0352 10.0196 24.0352 13.7466 24.0352 17.4737C23.9137 17.6612 23.7853 17.8327 23.5753 17.9438C21.1739 19.2155 18.7753 20.4919 16.3777 21.7707C15.0061 22.5024 13.6388 23.2412 12.2695 23.9766C12.1134 23.9766 11.9569 23.9766 11.8008 23.9766C11.2491 23.678 10.6987 23.3766 10.1452 23.0818C6.9825 21.3962 3.81938 19.711 0.654844 18.0296C0.385781 17.8862 0.149062 17.7226 0.0351562 17.4268ZM12.7941 17.3176C12.7931 17.3176 12.7922 17.3176 12.7913 17.3176C12.7913 18.7754 12.7908 20.2332 12.7917 21.691C12.7917 21.9751 12.7936 21.9755 13.0439 21.8424C16.133 20.1966 19.2216 18.5494 22.3125 16.9074C22.4723 16.8226 22.5431 16.7312 22.5422 16.5366C22.5338 13.6758 22.5347 10.8146 22.5389 7.95382C22.5394 7.77476 22.5192 7.74429 22.3467 7.83241C19.2258 9.43132 16.102 11.0246 12.9773 12.6155C12.8419 12.6844 12.7894 12.7637 12.7903 12.9207C12.7969 14.3865 12.7941 15.8518 12.7941 17.3176ZM11.2781 17.3443C11.2781 15.879 11.2748 14.4137 11.2823 12.9484C11.2833 12.774 11.2223 12.6854 11.0714 12.6094C9.93797 12.0376 8.81016 11.454 7.67719 10.8816C7.20609 10.6435 7.30078 10.7091 7.29891 11.1123C7.29234 12.3905 7.29656 13.6688 7.29703 14.9471C7.29703 15.2837 7.14937 15.5368 6.84609 15.6765C6.57141 15.8026 6.30234 15.7712 6.05906 15.5734C5.83125 15.3877 5.775 15.1407 5.77547 14.8651C5.77734 13.283 5.77641 11.7005 5.77688 10.1185C5.77688 10.0098 5.78625 9.91132 5.65688 9.84569C4.3575 9.18757 3.06141 8.52523 1.76531 7.86194C1.58766 7.77101 1.53187 7.81132 1.53234 8.01382C1.53703 10.8821 1.53609 13.7504 1.53281 16.6187C1.53281 16.7448 1.57172 16.8099 1.68609 16.8694C2.295 17.184 2.89828 17.5093 3.50344 17.8318C6.01969 19.1738 8.53594 20.5163 11.0522 21.8579C11.273 21.9755 11.2777 21.9732 11.2777 21.7168C11.2786 20.2594 11.2781 18.8016 11.2781 17.3443ZM12.0192 1.63085C11.9114 1.68429 11.8064 1.73444 11.7028 1.78741C8.68453 3.32679 5.66672 4.86616 2.64891 6.40648C2.59687 6.43319 2.50922 6.43976 2.51156 6.51241C2.51391 6.58413 2.60344 6.58694 2.655 6.61366C3.71531 7.15741 4.77703 7.69882 5.83828 8.23976C6.08813 8.36679 6.33891 8.59179 6.58875 8.59085C6.84797 8.58944 7.10813 8.37194 7.36547 8.24397C10.2487 6.80491 13.132 5.36538 16.0144 3.92397C16.0866 3.88788 16.2028 3.87476 16.2056 3.78429C16.207 3.74585 16.0889 3.69851 16.0205 3.66382C14.7586 3.01929 13.4962 2.37569 12.2339 1.73257C12.165 1.69741 12.0942 1.66647 12.0192 1.63085ZM12.0319 11.3996C12.0933 11.3696 12.1491 11.3429 12.2044 11.3148C15.2653 9.75288 18.3258 8.19054 21.3862 6.62773C21.4462 6.59726 21.5447 6.58085 21.54 6.50726C21.5353 6.44023 21.4387 6.42007 21.3778 6.38866C20.2955 5.83601 19.2117 5.2871 18.1312 4.73116C18.008 4.66741 17.9137 4.6646 17.7881 4.72788C14.6948 6.27851 11.5997 7.82491 8.505 9.37366C8.44547 9.40319 8.33859 9.40366 8.33906 9.47679C8.33953 9.55741 8.44641 9.57522 8.51109 9.60851C9.62766 10.1809 10.7452 10.7504 11.8631 11.3199C11.9184 11.3471 11.9747 11.3724 12.0319 11.3996Z" fill="#68727D"/>
</g>
<defs>
<clipPath id="clip0_2266_1469">
<rect width="24" height="24" fill="white"/>
</clipPath>
</defs>
</svg>
