<svg width="20" height="20" viewBox="0 0 20 20" fill="none" xmlns="http://www.w3.org/2000/svg">
<path d="M5.55556 2.49966C5.25 2.49966 5 2.74962 5 3.05513V13.0536C5 13.3591 5.25 13.609 5.55556 13.609H7.22222C7.52778 13.609 7.77778 13.3591 7.77778 13.0536V3.05513C7.77778 2.74962 7.52778 2.49966 7.22222 2.49966H5.55556ZM3.63194 1.94419C4.01389 1.2811 4.73264 0.833252 5.55556 0.833252H7.22222C8.04514 0.833252 8.76389 1.2811 9.14583 1.94419H11.1111H11.9444H12.7778H17.7778C19.0035 1.94419 20 2.94056 20 4.16606V5.83247V6.66567V7.49888V16.3864C20 17.6119 19.0035 18.6083 17.7778 18.6083H2.22222C0.996528 18.6083 0 17.6119 0 16.3864V4.16606C0 2.94056 0.996528 1.94419 2.22222 1.94419H3.63194ZM3.33333 3.6106H2.22222C1.91667 3.6106 1.66667 3.86056 1.66667 4.16606V16.3864C1.66667 16.6919 1.91667 16.9418 2.22222 16.9418H17.7778C18.0833 16.9418 18.3333 16.6919 18.3333 16.3864V7.49888H12.5C11.7326 7.49888 11.1111 6.87745 11.1111 6.11021V3.6106H9.44444V13.0536C9.44444 14.2791 8.44792 15.2754 7.22222 15.2754H5.55556C4.32986 15.2754 3.33333 14.2791 3.33333 13.0536V3.6106ZM12.7778 3.6106V5.83247H18.3333V4.16606C18.3333 3.86056 18.0833 3.6106 17.7778 3.6106H12.7778ZM13.3333 10.2762C13.3333 10.5709 13.2163 10.8534 13.0079 11.0618C12.7995 11.2701 12.5169 11.3872 12.2222 11.3872C11.9275 11.3872 11.6449 11.2701 11.4365 11.0618C11.2282 10.8534 11.1111 10.5709 11.1111 10.2762C11.1111 9.98158 11.2282 9.69901 11.4365 9.49067C11.6449 9.28233 11.9275 9.16528 12.2222 9.16528C12.5169 9.16528 12.7995 9.28233 13.0079 9.49067C13.2163 9.69901 13.3333 9.98158 13.3333 10.2762ZM12.2222 14.72C11.9275 14.72 11.6449 14.6029 11.4365 14.3946C11.2282 14.1862 11.1111 13.9037 11.1111 13.609C11.1111 13.3144 11.2282 13.0318 11.4365 12.8235C11.6449 12.6151 11.9275 12.4981 12.2222 12.4981C12.5169 12.4981 12.7995 12.6151 13.0079 12.8235C13.2163 13.0318 13.3333 13.3144 13.3333 13.609C13.3333 13.9037 13.2163 14.1862 13.0079 14.3946C12.7995 14.6029 12.5169 14.72 12.2222 14.72ZM16.6667 10.2762C16.6667 10.5709 16.5496 10.8534 16.3412 11.0618C16.1329 11.2701 15.8502 11.3872 15.5556 11.3872C15.2609 11.3872 14.9783 11.2701 14.7699 11.0618C14.5615 10.8534 14.4444 10.5709 14.4444 10.2762C14.4444 9.98158 14.5615 9.69901 14.7699 9.49067C14.9783 9.28233 15.2609 9.16528 15.5556 9.16528C15.8502 9.16528 16.1329 9.28233 16.3412 9.49067C16.5496 9.69901 16.6667 9.98158 16.6667 10.2762ZM15.5556 14.72C15.2609 14.72 14.9783 14.6029 14.7699 14.3946C14.5615 14.1862 14.4444 13.9037 14.4444 13.609C14.4444 13.3144 14.5615 13.0318 14.7699 12.8235C14.9783 12.6151 15.2609 12.4981 15.5556 12.4981C15.8502 12.4981 16.1329 12.6151 16.3412 12.8235C16.5496 13.0318 16.6667 13.3144 16.6667 13.609C16.6667 13.9037 16.5496 14.1862 16.3412 14.3946C16.1329 14.6029 15.8502 14.72 15.5556 14.72Z" fill="#16191D"/>
</svg>
