<svg width="20" height="20" viewBox="0 0 20 20" fill="none" xmlns="http://www.w3.org/2000/svg">
<path d="M14.6797 10.75C14.0391 10.4766 13.2969 10.6563 12.8555 11.1954L11.5586 12.7813C9.76172 11.7383 8.26172 10.2383 7.21875 8.44146L8.80078 7.14849C9.33984 6.70708 9.52344 5.96489 9.24609 5.32427L7.37109 0.949268C7.07812 0.261768 6.33984 -0.121045 5.60938 0.0352051L1.23438 0.972705C0.515625 1.12505 0 1.76177 0 2.50005C0 11.5313 6.84375 18.9688 15.6289 19.9024C16.0117 19.9415 16.3945 19.9727 16.7852 19.9883H16.7891C17.0273 19.9961 17.2617 20.004 17.5 20.004C18.2383 20.004 18.875 19.4883 19.0273 18.7696L19.9648 14.3946C20.1211 13.6641 19.7383 12.9258 19.0508 12.6329L14.6758 10.7579L14.6797 10.75ZM17.2461 18.125C8.82031 17.9883 2.01172 11.1797 1.87891 2.75396L5.75391 1.92192L7.43359 5.8438L6.03125 6.99224C5.32031 7.57427 5.13672 8.58599 5.59766 9.38286C6.80469 11.4649 8.53906 13.1993 10.6211 14.4063C11.418 14.8672 12.4297 14.6836 13.0117 13.9727L14.1602 12.5704L18.082 14.25L17.2461 18.125Z" fill="#16191D"/>
</svg>
