<svg width="16" height="16" viewBox="0 0 16 16" fill="none" xmlns="http://www.w3.org/2000/svg">
<g id="icons/plus">
<path id="Vector" d="M8.58331 2.25C8.58331 1.83437 8.24894 1.5 7.83331 1.5C7.41769 1.5 7.08331 1.83437 7.08331 2.25V7.25H2.08331C1.66769 7.25 1.33331 7.58437 1.33331 8C1.33331 8.41563 1.66769 8.75 2.08331 8.75H7.08331V13.75C7.08331 14.1656 7.41769 14.5 7.83331 14.5C8.24894 14.5 8.58331 14.1656 8.58331 13.75V8.75H13.5833C13.9989 8.75 14.3333 8.41563 14.3333 8C14.3333 7.58437 13.9989 7.25 13.5833 7.25H8.58331V2.25Z" fill="#252525"/>
</g>
</svg>
