<svg width="20" height="20" viewBox="0 0 20 20" fill="none" xmlns="http://www.w3.org/2000/svg">
<g clip-path="url(#clip0_730_3036)">
<path d="M2.85158 4.96094L10 1.92969L17.1485 4.96094C17.3789 5.05859 17.5039 5.26563 17.5 5.46094C17.4844 9.03125 16 15.1992 10.2227 17.9648C10.082 18.0313 9.91799 18.0313 9.78127 17.9648C4.00002 15.1953 2.51955 9.03125 2.50002 5.45703C2.50002 5.26172 2.62111 5.05859 2.85158 4.95703V4.96094ZM17.8789 3.23438L10.5235 0.113281C10.3594 0.0390625 10.1836 0 10 0C9.81642 0 9.64064 0.0390625 9.47658 0.113281L2.12111 3.23438C1.26174 3.59766 0.621112 4.44531 0.625018 5.46875C0.644549 9.34375 2.2383 16.4336 8.96877 19.6563C9.62111 19.9688 10.3789 19.9688 11.0313 19.6563C17.7656 16.4336 19.3555 9.34375 19.375 5.46875C19.3789 4.44531 18.7383 3.59766 17.8789 3.23438ZM12.1875 8.125C12.1875 6.91797 11.207 5.9375 10 5.9375C8.79299 5.9375 7.81252 6.91797 7.81252 8.125C7.81252 8.99609 8.32424 9.75 9.06252 10.1016V12.8125C9.06252 13.332 9.48049 13.75 10 13.75C10.5195 13.75 10.9375 13.332 10.9375 12.8125V10.1016C11.6758 9.75 12.1875 8.99609 12.1875 8.125Z" fill="#16191D"/>
</g>
<defs>
<clipPath id="clip0_730_3036">
<rect width="20" height="20" fill="white"/>
</clipPath>
</defs>
</svg>
