<svg width="18" height="18" viewBox="0 0 18 18" fill="none" xmlns="http://www.w3.org/2000/svg">
<path d="M3.48675 15.97L3.12356 16.6828H3.12356L3.48675 15.97ZM2.03003 14.5133L2.74283 14.1501L2.74283 14.1501L2.03003 14.5133ZM15.9701 14.5133L15.2573 14.1501L15.9701 14.5133ZM14.5134 15.97L14.1502 15.2572L14.5134 15.97ZM14.5134 2.02993L14.1502 2.74273V2.74273L14.5134 2.02993ZM15.9701 3.48665L16.6829 3.12346L15.9701 3.48665ZM3.48675 2.02993L3.84994 2.74273V2.74273L3.48675 2.02993ZM2.03003 3.48665L2.74283 3.84984L2.03003 3.48665ZM6.33623 2.46735C6.77806 2.46578 7.13495 2.10634 7.13338 1.66451C7.13181 1.22269 6.77236 0.865791 6.33054 0.867363L6.33623 2.46735ZM11.6696 0.867363C11.2277 0.865791 10.8683 1.22269 10.8667 1.66451C10.8651 2.10634 11.222 2.46578 11.6639 2.46735L11.6696 0.867363ZM2.46728 11.6101C2.46598 11.1682 2.10676 10.8111 1.66493 10.8124C1.22311 10.8137 0.865987 11.1729 0.867286 11.6148L2.46728 11.6101ZM17.1328 11.6148C17.1341 11.1729 16.777 10.8137 16.3352 10.8124C15.8933 10.8111 15.5341 11.1682 15.5328 11.6101L17.1328 11.6148ZM15.5326 6.33613C15.5342 6.77796 15.8937 7.13485 16.3355 7.13328C16.7773 7.13171 17.1342 6.77226 17.1326 6.33044L15.5326 6.33613ZM6.33054 17.1325C6.77236 17.1341 7.13181 16.7772 7.13338 16.3354C7.13495 15.8936 6.77806 15.5341 6.33623 15.5325L6.33054 17.1325ZM11.664 15.5325C11.2221 15.5341 10.8652 15.8936 10.8668 16.3354C10.8684 16.7772 11.2278 17.1341 11.6697 17.1325L11.664 15.5325ZM0.867463 6.33044C0.86589 6.77226 1.22279 7.13171 1.66461 7.13328C2.10644 7.13485 2.46588 6.77796 2.46745 6.33613L0.867463 6.33044ZM10.5415 9.74169C10.0997 9.74169 9.74155 10.0999 9.74155 10.5417C9.74155 10.9835 10.0997 11.3417 10.5415 11.3417V9.74169ZM10.7915 11.3417C11.2334 11.3417 11.5915 10.9835 11.5915 10.5417C11.5915 10.0999 11.2334 9.74169 10.7915 9.74169V11.3417ZM10.5415 9.99169C10.0997 9.99169 9.74155 10.3499 9.74155 10.7917C9.74155 11.2335 10.0997 11.5917 10.5415 11.5917V9.99169ZM10.7915 11.5917C11.2334 11.5917 11.5915 11.2335 11.5915 10.7917C11.5915 10.3499 11.2334 9.99169 10.7915 9.99169V11.5917ZM10.5415 12.4084C10.0997 12.4084 9.74155 12.7665 9.74155 13.2084C9.74155 13.6502 10.0997 14.0084 10.5415 14.0084V12.4084ZM10.7915 14.0084C11.2334 14.0084 11.5915 13.6502 11.5915 13.2084C11.5915 12.7665 11.2334 12.4084 10.7915 12.4084V14.0084ZM10.5415 12.6584C10.0997 12.6584 9.74155 13.0165 9.74155 13.4584C9.74155 13.9002 10.0997 14.2584 10.5415 14.2584V12.6584ZM10.7915 14.2584C11.2334 14.2584 11.5915 13.9002 11.5915 13.4584C11.5915 13.0165 11.2334 12.6584 10.7915 12.6584V14.2584ZM13.2082 9.74169C12.7664 9.74169 12.4082 10.0999 12.4082 10.5417C12.4082 10.9835 12.7664 11.3417 13.2082 11.3417V9.74169ZM13.4582 11.3417C13.9 11.3417 14.2582 10.9835 14.2582 10.5417C14.2582 10.0999 13.9 9.74169 13.4582 9.74169V11.3417ZM13.2082 9.99169C12.7664 9.99169 12.4082 10.3499 12.4082 10.7917C12.4082 11.2335 12.7664 11.5917 13.2082 11.5917V9.99169ZM13.4582 11.5917C13.9 11.5917 14.2582 11.2335 14.2582 10.7917C14.2582 10.3499 13.9 9.99169 13.4582 9.99169V11.5917ZM13.2082 12.4084C12.7664 12.4084 12.4082 12.7665 12.4082 13.2084C12.4082 13.6502 12.7664 14.0084 13.2082 14.0084V12.4084ZM13.4582 14.0084C13.9 14.0084 14.2582 13.6502 14.2582 13.2084C14.2582 12.7665 13.9 12.4084 13.4582 12.4084V14.0084ZM13.2082 12.6584C12.7664 12.6584 12.4082 13.0165 12.4082 13.4584C12.4082 13.9002 12.7664 14.2584 13.2082 14.2584V12.6584ZM13.4582 14.2584C13.9 14.2584 14.2582 13.9002 14.2582 13.4584C14.2582 13.0165 13.9 12.6584 13.4582 12.6584V14.2584ZM5.66663 5.13337H6.3333V3.53337H5.66663V5.13337ZM6.86663 5.66671V6.33337H8.46663V5.66671H6.86663ZM6.3333 6.86671H5.66663V8.46671H6.3333V6.86671ZM5.1333 6.33337V5.66671H3.5333V6.33337H5.1333ZM5.66663 6.86671C5.37208 6.86671 5.1333 6.62793 5.1333 6.33337H3.5333C3.5333 7.51158 4.48842 8.46671 5.66663 8.46671V6.86671ZM6.86663 6.33337C6.86663 6.62793 6.62785 6.86671 6.3333 6.86671V8.46671C7.51151 8.46671 8.46663 7.51158 8.46663 6.33337H6.86663ZM6.3333 5.13337C6.62785 5.13337 6.86663 5.37216 6.86663 5.66671H8.46663C8.46663 4.4885 7.51151 3.53337 6.3333 3.53337V5.13337ZM5.66663 3.53337C4.48842 3.53337 3.5333 4.4885 3.5333 5.66671H5.1333C5.1333 5.37216 5.37208 5.13337 5.66663 5.13337V3.53337ZM5.66663 11.1334H6.3333V9.53337H5.66663V11.1334ZM6.86663 11.6667V12.3334H8.46663V11.6667H6.86663ZM6.3333 12.8667H5.66663V14.4667H6.3333V12.8667ZM5.1333 12.3334V11.6667H3.5333V12.3334H5.1333ZM5.66663 12.8667C5.37208 12.8667 5.1333 12.6279 5.1333 12.3334H3.5333C3.5333 13.5116 4.48842 14.4667 5.66663 14.4667V12.8667ZM6.86663 12.3334C6.86663 12.6279 6.62785 12.8667 6.3333 12.8667V14.4667C7.51151 14.4667 8.46663 13.5116 8.46663 12.3334H6.86663ZM6.3333 11.1334C6.62785 11.1334 6.86663 11.3722 6.86663 11.6667H8.46663C8.46663 10.4885 7.51151 9.53337 6.3333 9.53337V11.1334ZM5.66663 9.53337C4.48842 9.53337 3.5333 10.4885 3.5333 11.6667H5.1333C5.1333 11.3722 5.37208 11.1334 5.66663 11.1334V9.53337ZM11.6666 5.13337H12.3333V3.53337H11.6666V5.13337ZM12.8666 5.66671V6.33337H14.4666V5.66671H12.8666ZM12.3333 6.86671H11.6666V8.46671H12.3333V6.86671ZM11.1333 6.33337V5.66671H9.5333V6.33337H11.1333ZM11.6666 6.86671C11.3721 6.86671 11.1333 6.62793 11.1333 6.33337H9.5333C9.5333 7.51158 10.4884 8.46671 11.6666 8.46671V6.86671ZM12.8666 6.33337C12.8666 6.62793 12.6278 6.86671 12.3333 6.86671V8.46671C13.5115 8.46671 14.4666 7.51158 14.4666 6.33337H12.8666ZM12.3333 5.13337C12.6278 5.13337 12.8666 5.37216 12.8666 5.66671H14.4666C14.4666 4.4885 13.5115 3.53337 12.3333 3.53337V5.13337ZM11.6666 3.53337C10.4884 3.53337 9.5333 4.4885 9.5333 5.66671H11.1333C11.1333 5.37216 11.3721 5.13337 11.6666 5.13337V3.53337ZM3.84994 15.2572C3.37326 15.0143 2.98571 14.6267 2.74283 14.1501L1.31722 14.8764C1.7135 15.6542 2.34582 16.2865 3.12356 16.6828L3.84994 15.2572ZM15.2573 14.1501C15.0144 14.6267 14.6268 15.0143 14.1502 15.2572L14.8765 16.6828C15.6543 16.2865 16.2866 15.6542 16.6829 14.8764L15.2573 14.1501ZM14.1502 2.74273C14.6268 2.98561 15.0144 3.37316 15.2573 3.84984L16.6829 3.12346C16.2866 2.34572 15.6543 1.7134 14.8765 1.31712L14.1502 2.74273ZM3.12356 1.31712C2.34582 1.7134 1.7135 2.34572 1.31722 3.12346L2.74283 3.84984C2.98571 3.37316 3.37326 2.98561 3.84994 2.74273L3.12356 1.31712ZM6.33054 0.867363C4.948 0.872285 3.94856 0.896764 3.12356 1.31712L3.84994 2.74273C4.27016 2.52862 4.852 2.47264 6.33623 2.46735L6.33054 0.867363ZM11.6639 2.46735C13.1481 2.47264 13.7299 2.52862 14.1502 2.74273L14.8765 1.31712C14.0515 0.896764 13.0521 0.872285 11.6696 0.867363L11.6639 2.46735ZM0.867286 11.6148C0.871438 13.0278 0.892239 14.0424 1.31722 14.8764L2.74283 14.1501C2.52539 13.7233 2.47175 13.1325 2.46728 11.6101L0.867286 11.6148ZM15.5328 11.6101C15.5283 13.1325 15.4747 13.7233 15.2573 14.1501L16.6829 14.8764C17.1079 14.0424 17.1287 13.0278 17.1328 11.6148L15.5328 11.6101ZM17.1326 6.33044C17.1277 4.9479 17.1032 3.94846 16.6829 3.12346L15.2573 3.84984C15.4714 4.27006 15.5274 4.8519 15.5326 6.33613L17.1326 6.33044ZM6.33623 15.5325C4.852 15.5273 4.27016 15.4713 3.84994 15.2572L3.12356 16.6828C3.94856 17.1031 4.948 17.1276 6.33054 17.1325L6.33623 15.5325ZM11.6697 17.1325C13.0521 17.1276 14.0516 17.1031 14.8765 16.6828L14.1502 15.2572C13.7299 15.4713 13.1481 15.5273 11.664 15.5325L11.6697 17.1325ZM2.46745 6.33613C2.47274 4.8519 2.52872 4.27006 2.74283 3.84984L1.31722 3.12346C0.896863 3.94846 0.872384 4.9479 0.867463 6.33044L2.46745 6.33613ZM10.2 10.6667C10.2 10.409 10.4089 10.2 10.6666 10.2V11.8C11.2926 11.8 11.8 11.2926 11.8 10.6667H10.2ZM10.6666 10.2C10.9244 10.2 11.1333 10.409 11.1333 10.6667H9.5333C9.5333 11.2926 10.0407 11.8 10.6666 11.8V10.2ZM11.1333 10.6667C11.1333 10.9244 10.9244 11.1334 10.6666 11.1334V9.53337C10.0407 9.53337 9.5333 10.0408 9.5333 10.6667H11.1333ZM10.6666 11.1334C10.4089 11.1334 10.2 10.9244 10.2 10.6667H11.8C11.8 10.0408 11.2926 9.53337 10.6666 9.53337V11.1334ZM10.5415 11.3417H10.7915V9.74169H10.5415V11.3417ZM10.5415 11.5917H10.7915V9.99169H10.5415V11.5917ZM10.2 13.3334C10.2 13.0756 10.4089 12.8667 10.6666 12.8667V14.4667C11.2926 14.4667 11.8 13.9593 11.8 13.3334H10.2ZM10.6666 12.8667C10.9244 12.8667 11.1333 13.0756 11.1333 13.3334H9.5333C9.5333 13.9593 10.0407 14.4667 10.6666 14.4667V12.8667ZM11.1333 13.3334C11.1333 13.5911 10.9244 13.8 10.6666 13.8V12.2C10.0407 12.2 9.5333 12.7075 9.5333 13.3334H11.1333ZM10.6666 13.8C10.4089 13.8 10.2 13.5911 10.2 13.3334H11.8C11.8 12.7075 11.2926 12.2 10.6666 12.2V13.8ZM10.5415 14.0084H10.7915V12.4084H10.5415V14.0084ZM10.5415 14.2584H10.7915V12.6584H10.5415V14.2584ZM12.8666 10.6667C12.8666 10.409 13.0756 10.2 13.3333 10.2V11.8C13.9592 11.8 14.4666 11.2926 14.4666 10.6667H12.8666ZM13.3333 10.2C13.591 10.2 13.8 10.409 13.8 10.6667H12.2C12.2 11.2926 12.7074 11.8 13.3333 11.8V10.2ZM13.8 10.6667C13.8 10.9244 13.591 11.1334 13.3333 11.1334V9.53337C12.7074 9.53337 12.2 10.0408 12.2 10.6667H13.8ZM13.3333 11.1334C13.0756 11.1334 12.8666 10.9244 12.8666 10.6667H14.4666C14.4666 10.0408 13.9592 9.53337 13.3333 9.53337V11.1334ZM13.2082 11.3417H13.4582V9.74169H13.2082V11.3417ZM13.2082 11.5917H13.4582V9.99169H13.2082V11.5917ZM12.8666 13.3334C12.8666 13.0756 13.0756 12.8667 13.3333 12.8667V14.4667C13.9592 14.4667 14.4666 13.9593 14.4666 13.3334H12.8666ZM13.3333 12.8667C13.591 12.8667 13.8 13.0756 13.8 13.3334H12.2C12.2 13.9593 12.7074 14.4667 13.3333 14.4667V12.8667ZM13.8 13.3334C13.8 13.5911 13.591 13.8 13.3333 13.8V12.2C12.7074 12.2 12.2 12.7075 12.2 13.3334H13.8ZM13.3333 13.8C13.0756 13.8 12.8666 13.5911 12.8666 13.3334H14.4666C14.4666 12.7075 13.9592 12.2 13.3333 12.2V13.8ZM13.2082 14.0084H13.4582V12.4084H13.2082V14.0084ZM13.2082 14.2584H13.4582V12.6584H13.2082V14.2584Z" fill="#68727D"/>
</svg>
