<svg width="144" height="28" viewBox="0 0 144 28" fill="none" xmlns="http://www.w3.org/2000/svg">
<path d="M13.3607 1.40423C13.6319 0.865257 14.3681 0.865256 14.6393 1.40423L18.253 8.58528C18.3576 8.79313 18.5482 8.93835 18.7691 8.97841L26.3997 10.3627C26.9724 10.4666 27.1999 11.2007 26.7948 11.6377L21.3976 17.4601C21.2413 17.6286 21.1685 17.8636 21.2004 18.0962L22.3028 26.1328C22.3855 26.736 21.7899 27.1897 21.2683 26.9208L14.319 23.3382C14.1178 23.2345 13.8822 23.2345 13.681 23.3382L6.73171 26.9208C6.21013 27.1897 5.61451 26.736 5.69724 26.1328L6.79956 18.0962C6.83147 17.8636 6.75865 17.6286 6.60243 17.4601L1.2052 11.6377C0.800106 11.2007 1.02761 10.4666 1.60033 10.3627L9.23092 8.97841C9.45178 8.93835 9.64242 8.79313 9.74701 8.58528L13.3607 1.40423Z" fill="#EFA22F"/>
<path d="M42.3607 1.40423C42.6319 0.865257 43.3681 0.865256 43.6393 1.40423L47.253 8.58528C47.3576 8.79313 47.5482 8.93835 47.7691 8.97841L55.3997 10.3627C55.9724 10.4666 56.1999 11.2007 55.7948 11.6377L50.3976 17.4601C50.2413 17.6286 50.1685 17.8636 50.2004 18.0962L51.3028 26.1328C51.3855 26.736 50.7899 27.1897 50.2683 26.9208L43.319 23.3382C43.1178 23.2345 42.8822 23.2345 42.681 23.3382L35.7317 26.9208C35.2101 27.1897 34.6145 26.736 34.6972 26.1328L35.7996 18.0962C35.8315 17.8636 35.7587 17.6286 35.6024 17.4601L30.2052 11.6377C29.8001 11.2007 30.0276 10.4666 30.6003 10.3627L38.2309 8.97841C38.4518 8.93835 38.6424 8.79313 38.747 8.58528L42.3607 1.40423Z" fill="#EFA22F"/>
<path d="M71.3607 1.40423C71.6319 0.865257 72.3681 0.865256 72.6393 1.40423L76.253 8.58528C76.3576 8.79313 76.5482 8.93835 76.7691 8.97841L84.3997 10.3627C84.9724 10.4666 85.1999 11.2007 84.7948 11.6377L79.3976 17.4601C79.2413 17.6286 79.1685 17.8636 79.2004 18.0962L80.3028 26.1328C80.3855 26.736 79.7899 27.1897 79.2683 26.9208L72.319 23.3382C72.1178 23.2345 71.8822 23.2345 71.681 23.3382L64.7317 26.9208C64.2101 27.1897 63.6145 26.736 63.6972 26.1328L64.7996 18.0962C64.8315 17.8636 64.7587 17.6286 64.6024 17.4601L59.2052 11.6377C58.8001 11.2007 59.0276 10.4666 59.6003 10.3627L67.2309 8.97841C67.4518 8.93835 67.6424 8.79313 67.747 8.58528L71.3607 1.40423Z" fill="#EFA22F"/>
<path d="M100.361 1.40423C100.632 0.865257 101.368 0.865256 101.639 1.40423L105.253 8.58528C105.358 8.79313 105.548 8.93835 105.769 8.97841L113.4 10.3627C113.972 10.4666 114.2 11.2007 113.795 11.6377L108.398 17.4601C108.241 17.6286 108.169 17.8636 108.2 18.0962L109.303 26.1328C109.385 26.736 108.79 27.1897 108.268 26.9208L101.319 23.3382C101.118 23.2345 100.882 23.2345 100.681 23.3382L93.7317 26.9208C93.2101 27.1897 92.6145 26.736 92.6972 26.1328L93.7996 18.0962C93.8315 17.8636 93.7587 17.6286 93.6024 17.4601L88.2052 11.6377C87.8001 11.2007 88.0276 10.4666 88.6003 10.3627L96.2309 8.97841C96.4518 8.93835 96.6424 8.79313 96.747 8.58528L100.361 1.40423Z" fill="#EFA22F"/>
<path d="M129.361 1.40423C129.632 0.865257 130.368 0.865256 130.639 1.40423L134.253 8.58528C134.358 8.79313 134.548 8.93835 134.769 8.97841L142.4 10.3627C142.972 10.4666 143.2 11.2007 142.795 11.6377L137.398 17.4601C137.241 17.6286 137.169 17.8636 137.2 18.0962L138.303 26.1328C138.385 26.736 137.79 27.1897 137.268 26.9208L130.319 23.3382C130.118 23.2345 129.882 23.2345 129.681 23.3382L122.732 26.9208C122.21 27.1897 121.615 26.736 121.697 26.1328L122.8 18.0962C122.831 17.8636 122.759 17.6286 122.602 17.4601L117.205 11.6377C116.8 11.2007 117.028 10.4666 117.6 10.3627L125.231 8.97841C125.452 8.93835 125.642 8.79313 125.747 8.58528L129.361 1.40423Z" fill="#C1C3C7"/>
</svg>
