<svg width="16" height="15" viewBox="0 0 16 15" fill="none" xmlns="http://www.w3.org/2000/svg">
<path d="M8.63611 1.13056C8.54722 0.855605 8.29167 0.666748 8 0.666748C7.70833 0.666748 7.45278 0.855605 7.36389 1.13056L5.95833 5.5548H1.55555C1.26944 5.5548 1.01667 5.73532 0.924999 6.00472C0.833332 6.27412 0.922221 6.57129 1.14722 6.74626L4.78056 9.57356L3.36389 14.0172C3.275 14.295 3.37778 14.6005 3.61667 14.7671C3.85555 14.9338 4.17778 14.9254 4.40833 14.7477L8 11.9537L11.5917 14.7449C11.8222 14.9254 12.1417 14.9338 12.3833 14.7643C12.625 14.5949 12.725 14.295 12.6361 14.0145L11.2194 9.57356L14.8528 6.74626C15.0778 6.57129 15.1667 6.27412 15.075 6.00472C14.9833 5.73532 14.7306 5.5548 14.4444 5.5548H10.0417L8.63611 1.13056Z" fill="#27B973"/>
</svg>
