<svg width="14" height="14" viewBox="0 0 14 14" fill="none" xmlns="http://www.w3.org/2000/svg">
<path d="M2 1.5C1.725 1.5 1.5 1.725 1.5 2V12C1.5 12.275 1.725 12.5 2 12.5H12C12.275 12.5 12.5 12.275 12.5 12V2C12.5 1.725 12.275 1.5 12 1.5H2ZM0 2C0 0.896875 0.896875 0 2 0H12C13.1031 0 14 0.896875 14 2V12C14 13.1031 13.1031 14 12 14H2C0.896875 14 0 13.1031 0 12V2ZM7 4C7.20937 4 7.40625 4.0875 7.55 4.24062L10.8 7.74063C11.0031 7.95938 11.0562 8.27813 10.9375 8.55C10.8187 8.82188 10.5469 9 10.25 9H3.75C3.45312 9 3.18125 8.82188 3.0625 8.55C2.94375 8.27813 2.99688 7.95938 3.2 7.74063L6.45 4.24062C6.59062 4.0875 6.79062 4 7 4Z" fill="#E33B32"/>
</svg>
