<svg width="20" height="20" viewBox="0 0 20 20" fill="none" xmlns="http://www.w3.org/2000/svg">
<g clip-path="url(#clip0_730_3057)">
<path d="M10.0001 0C10.6641 0 11.3126 0.0664063 11.9454 0.1875C12.254 0.246094 12.7969 0.425781 13.0938 0.972656C13.1719 1.11719 13.2344 1.26953 13.2735 1.43359L13.6368 2.9375C13.6915 3.16406 14.0743 3.38672 14.2969 3.32031L15.7813 2.88281C15.9376 2.83594 16.0977 2.8125 16.2579 2.80859C16.8868 2.78906 17.3126 3.17578 17.5196 3.41016C18.3829 4.39062 19.0469 5.54297 19.4688 6.78125C19.5704 7.07812 19.6876 7.63281 19.3633 8.16406C19.2774 8.30469 19.1719 8.4375 19.0508 8.55469L17.9297 9.62109C17.7657 9.77734 17.7657 10.2266 17.9297 10.3828L19.0508 11.4492C19.1719 11.5664 19.2774 11.6992 19.3633 11.8398C19.6836 12.3711 19.5665 12.9258 19.4688 13.2227C19.0469 14.4609 18.3829 15.6094 17.5196 16.5938C17.3126 16.8281 16.8829 17.2148 16.2579 17.1953C16.0977 17.1914 15.9376 17.1641 15.7813 17.1211L14.2969 16.6797C14.0743 16.6133 13.6915 16.8359 13.6368 17.0625L13.2735 18.5664C13.2344 18.7305 13.1719 18.8867 13.0938 19.0273C12.793 19.5742 12.2501 19.75 11.9454 19.8125C11.3126 19.9336 10.6641 20 10.0001 20C9.33599 20 8.68755 19.9336 8.05474 19.8125C7.74615 19.7539 7.20318 19.5742 6.9063 19.0273C6.82818 18.8828 6.76568 18.7305 6.72662 18.5664L6.36333 17.0625C6.30865 16.8359 5.92583 16.6133 5.70318 16.6797L4.2188 17.1172C4.06255 17.1641 3.9024 17.1875 3.74224 17.1914C3.11334 17.2109 2.68755 16.8242 2.48052 16.5898C1.62115 15.6094 0.953179 14.457 0.531304 13.2188C0.429741 12.9219 0.312554 12.3672 0.636773 11.8359C0.72271 11.6953 0.828179 11.5625 0.949273 11.4453L2.07037 10.3789C2.23443 10.2227 2.23443 9.77344 2.07037 9.61719L0.945366 8.55078C0.824273 8.43359 0.718804 8.30078 0.632866 8.16016C0.312554 7.62891 0.429741 7.07422 0.531304 6.78125C0.953179 5.54297 1.61724 4.39453 2.48052 3.41016C2.68755 3.17578 3.11724 2.78906 3.74224 2.80859C3.9024 2.8125 4.06255 2.83984 4.2188 2.88281L5.70318 3.32031C5.92583 3.38672 6.30865 3.16406 6.36333 2.9375L6.72662 1.43359C6.76568 1.26953 6.82818 1.11328 6.9063 0.972656C7.20708 0.425781 7.75005 0.25 8.05474 0.1875C8.68755 0.0664063 9.33599 0 10.0001 0ZM8.51958 2.00781L8.18755 3.37891C7.88287 4.64062 6.41802 5.48438 5.17193 5.12109L3.82427 4.72266C3.17974 5.47656 2.67193 6.35156 2.3399 7.28906L3.36333 8.26172C4.30083 9.15234 4.30083 10.8477 3.36333 11.7383L2.3399 12.7109C2.67193 13.6484 3.17974 14.5234 3.82427 15.2773L5.17583 14.8789C6.41802 14.5117 7.88677 15.3594 8.19146 16.6211L8.52349 17.9922C9.48443 18.168 10.5274 18.168 11.4883 17.9922L11.8204 16.6211C12.1251 15.3594 13.5899 14.5156 14.836 14.8789L16.1876 15.2773C16.8321 14.5234 17.3399 13.6484 17.6719 12.7109L16.6485 11.7383C15.711 10.8477 15.711 9.15234 16.6485 8.26172L17.6719 7.28906C17.3399 6.35156 16.8321 5.47656 16.1876 4.72266L14.836 5.12109C13.5938 5.48828 12.1251 4.64062 11.8204 3.37891L11.4883 2.00781C10.5274 1.83203 9.48443 1.83203 8.52349 2.00781H8.51958ZM8.12505 10C8.12505 10.4973 8.3226 10.9742 8.67423 11.3258C9.02586 11.6775 9.50277 11.875 10.0001 11.875C10.4973 11.875 10.9742 11.6775 11.3259 11.3258C11.6775 10.9742 11.8751 10.4973 11.8751 10C11.8751 9.50272 11.6775 9.02581 11.3259 8.67417C10.9742 8.32254 10.4973 8.125 10.0001 8.125C9.50277 8.125 9.02586 8.32254 8.67423 8.67417C8.3226 9.02581 8.12505 9.50272 8.12505 10ZM10.0001 13.75C9.00549 13.75 8.05166 13.3549 7.3484 12.6517C6.64514 11.9484 6.25005 10.9946 6.25005 10C6.25005 9.00544 6.64514 8.05161 7.3484 7.34835C8.05166 6.64509 9.00549 6.25 10.0001 6.25C10.9946 6.25 11.9484 6.64509 12.6517 7.34835C13.355 8.05161 13.7501 9.00544 13.7501 10C13.7501 10.9946 13.355 11.9484 12.6517 12.6517C11.9484 13.3549 10.9946 13.75 10.0001 13.75Z" fill="#16191D"/>
</g>
<defs>
<clipPath id="clip0_730_3057">
<rect width="20" height="20" fill="white"/>
</clipPath>
</defs>
</svg>
