<svg width="16" height="16" viewBox="0 0 16 16" fill="none" xmlns="http://www.w3.org/2000/svg">
<path d="M15.9921 4C15.9921 5.65625 14.4571 7 12.5652 7C11.5336 7 10.609 6.6 9.98078 5.96875L6.77879 7.37187C6.82877 7.575 6.85376 7.78438 6.85376 8C6.85376 8.21562 6.82877 8.425 6.77879 8.62813L9.98078 10.0312C10.609 9.4 11.5336 9 12.5652 9C14.4571 9 15.9921 10.3438 15.9921 12C15.9921 13.6562 14.4571 15 12.5652 15C10.6733 15 9.13834 13.6562 9.13834 12C9.13834 11.7844 9.16333 11.575 9.2133 11.3719L6.01131 9.96875C5.38305 10.6 4.45851 11 3.42688 11C1.53496 11 0 9.65625 0 8C0 6.34375 1.53496 5 3.42688 5C4.45851 5 5.38305 5.4 6.01131 6.03125L9.2133 4.62813C9.16333 4.425 9.13834 4.21563 9.13834 4C9.13834 2.34375 10.6733 1 12.5652 1C14.4571 1 15.9921 2.34375 15.9921 4ZM3.42688 9.5C3.88131 9.5 4.31713 9.34196 4.63846 9.06066C4.95979 8.77936 5.14032 8.39782 5.14032 8C5.14032 7.60218 4.95979 7.22064 4.63846 6.93934C4.31713 6.65804 3.88131 6.5 3.42688 6.5C2.97245 6.5 2.53663 6.65804 2.21529 6.93934C1.89396 7.22064 1.71344 7.60218 1.71344 8C1.71344 8.39782 1.89396 8.77936 2.21529 9.06066C2.53663 9.34196 2.97245 9.5 3.42688 9.5ZM14.2787 4C14.2787 3.80302 14.2343 3.60796 14.1482 3.42597C14.0621 3.24399 13.9359 3.07863 13.7768 2.93934C13.6177 2.80005 13.4288 2.68956 13.2209 2.61418C13.013 2.5388 12.7902 2.5 12.5652 2.5C12.3402 2.5 12.1174 2.5388 11.9095 2.61418C11.7016 2.68956 11.5127 2.80005 11.3536 2.93934C11.1945 3.07863 11.0683 3.24399 10.9822 3.42597C10.8961 3.60796 10.8518 3.80302 10.8518 4C10.8518 4.19698 10.8961 4.39204 10.9822 4.57403C11.0683 4.75601 11.1945 4.92137 11.3536 5.06066C11.5127 5.19995 11.7016 5.31044 11.9095 5.38582C12.1174 5.4612 12.3402 5.5 12.5652 5.5C12.7902 5.5 13.013 5.4612 13.2209 5.38582C13.4288 5.31044 13.6177 5.19995 13.7768 5.06066C13.9359 4.92137 14.0621 4.75601 14.1482 4.57403C14.2343 4.39204 14.2787 4.19698 14.2787 4ZM12.5652 13.5C13.0197 13.5 13.4555 13.342 13.7768 13.0607C14.0981 12.7794 14.2787 12.3978 14.2787 12C14.2787 11.6022 14.0981 11.2206 13.7768 10.9393C13.4555 10.658 13.0197 10.5 12.5652 10.5C12.1108 10.5 11.675 10.658 11.3536 10.9393C11.0323 11.2206 10.8518 11.6022 10.8518 12C10.8518 12.3978 11.0323 12.7794 11.3536 13.0607C11.675 13.342 12.1108 13.5 12.5652 13.5Z" fill="#252525"/>
</svg>
