<svg width="16" height="16" viewBox="0 0 16 16" fill="none" xmlns="http://www.w3.org/2000/svg">
<g id="icons/sliders" clip-path="url(#clip0_1329_1591)">
<path id="Vector" d="M0 13C0 13.4156 0.334375 13.75 0.75 13.75H2.61562C2.93437 14.7656 3.88125 15.5 5 15.5C6.11875 15.5 7.06563 14.7656 7.38438 13.75H15.25C15.6656 13.75 16 13.4156 16 13C16 12.5844 15.6656 12.25 15.25 12.25H7.38438C7.06563 11.2344 6.11875 10.5 5 10.5C3.88125 10.5 2.93437 11.2344 2.61562 12.25H0.75C0.334375 12.25 0 12.5844 0 13ZM4 13C4 12.7348 4.10536 12.4804 4.29289 12.2929C4.48043 12.1054 4.73478 12 5 12C5.26522 12 5.51957 12.1054 5.70711 12.2929C5.89464 12.4804 6 12.7348 6 13C6 13.2652 5.89464 13.5196 5.70711 13.7071C5.51957 13.8946 5.26522 14 5 14C4.73478 14 4.48043 13.8946 4.29289 13.7071C4.10536 13.5196 4 13.2652 4 13ZM10 8C10 7.73478 10.1054 7.48043 10.2929 7.29289C10.4804 7.10536 10.7348 7 11 7C11.2652 7 11.5196 7.10536 11.7071 7.29289C11.8946 7.48043 12 7.73478 12 8C12 8.26522 11.8946 8.51957 11.7071 8.70711C11.5196 8.89464 11.2652 9 11 9C10.7348 9 10.4804 8.89464 10.2929 8.70711C10.1054 8.51957 10 8.26522 10 8ZM11 5.5C9.88125 5.5 8.93438 6.23438 8.61563 7.25H0.75C0.334375 7.25 0 7.58437 0 8C0 8.41563 0.334375 8.75 0.75 8.75H8.61563C8.93438 9.76562 9.88125 10.5 11 10.5C12.1187 10.5 13.0656 9.76562 13.3844 8.75H15.25C15.6656 8.75 16 8.41563 16 8C16 7.58437 15.6656 7.25 15.25 7.25H13.3844C13.0656 6.23438 12.1187 5.5 11 5.5ZM6 4C5.73478 4 5.48043 3.89464 5.29289 3.70711C5.10536 3.51957 5 3.26522 5 3C5 2.73478 5.10536 2.48043 5.29289 2.29289C5.48043 2.10536 5.73478 2 6 2C6.26522 2 6.51957 2.10536 6.70711 2.29289C6.89464 2.48043 7 2.73478 7 3C7 3.26522 6.89464 3.51957 6.70711 3.70711C6.51957 3.89464 6.26522 4 6 4ZM8.38437 2.25C8.06562 1.23438 7.11875 0.5 6 0.5C4.88125 0.5 3.93437 1.23438 3.61562 2.25H0.75C0.334375 2.25 0 2.58437 0 3C0 3.41563 0.334375 3.75 0.75 3.75H3.61562C3.93437 4.76562 4.88125 5.5 6 5.5C7.11875 5.5 8.06562 4.76562 8.38437 3.75H15.25C15.6656 3.75 16 3.41563 16 3C16 2.58437 15.6656 2.25 15.25 2.25H8.38437Z" fill="#252525"/>
</g>
<defs>
<clipPath id="clip0_1329_1591">
<rect width="16" height="16" fill="white"/>
</clipPath>
</defs>
</svg>
