<svg width="20" height="20" viewBox="0 0 20 20" fill="none" xmlns="http://www.w3.org/2000/svg">
<path d="M10.6721 2.08867C10.5471 1.82927 10.2846 1.66675 9.99705 1.66675C9.70955 1.66675 9.44705 1.82927 9.32205 2.08867L7.1783 6.50483L2.3908 7.21429C2.10955 7.25492 1.87518 7.45182 1.78768 7.72373C1.70018 7.99563 1.77205 8.28942 1.97205 8.48944L5.44393 11.9305L4.62518 16.7904C4.5783 17.0717 4.69393 17.3561 4.9283 17.5249C5.16268 17.6937 5.46893 17.7124 5.71893 17.578L10.0002 15.2903L14.2814 17.578C14.5346 17.7124 14.8408 17.6937 15.0721 17.5249C15.3033 17.3561 15.4221 17.0717 15.3752 16.7904L14.5502 11.9305L18.0252 8.48632C18.2283 8.28629 18.2971 7.98938 18.2096 7.7206C18.1221 7.45182 17.8877 7.25492 17.6064 7.21116L12.8158 6.50483L10.6721 2.08867ZM10.0002 13.6901V4.13892L11.6408 7.51745C11.7502 7.73935 11.9596 7.89562 12.2064 7.93313L15.9033 8.48007L13.2189 11.1366C13.0471 11.3085 12.9658 11.5523 13.0064 11.793L13.6377 15.5309L10.3502 13.7776C10.2408 13.7182 10.1189 13.6901 10.0002 13.6901Z" fill="#16191D"/>
</svg>
