<svg width="14" height="14" viewBox="0 0 14 14" fill="none" xmlns="http://www.w3.org/2000/svg">
<g clip-path="url(#clip0_343_2305)">
<path d="M7.5566 0.989207C7.47882 0.748624 7.25521 0.583374 7 0.583374C6.74479 0.583374 6.52118 0.748624 6.4434 0.989207L5.21354 4.86042H1.36111C1.11077 4.86042 0.889585 5.01838 0.809377 5.2541C0.729168 5.48983 0.806946 5.74985 1.00382 5.90295L4.18299 8.37683L2.9434 12.2651C2.86563 12.5081 2.95556 12.7754 3.16458 12.9212C3.37361 13.067 3.65556 13.0597 3.85729 12.9042L7 10.4595L10.1427 12.9018C10.3444 13.0597 10.624 13.067 10.8354 12.9188C11.0469 12.7705 11.1344 12.5081 11.0566 12.2626L9.81701 8.37683L12.9962 5.90295C13.1931 5.74985 13.2708 5.48983 13.1906 5.2541C13.1104 5.01838 12.8892 4.86042 12.6389 4.86042H8.78646L7.5566 0.989207Z" fill="#252525"/>
</g>
<defs>
<clipPath id="clip0_343_2305">
<rect width="14" height="14" fill="white"/>
</clipPath>
</defs>
</svg>
