<svg width="16" height="16" viewBox="0 0 16 16" fill="none" xmlns="http://www.w3.org/2000/svg">
<path d="M10.8334 4C10.8334 3.33696 10.57 2.70107 10.1011 2.23223C9.6323 1.76339 8.99642 1.5 8.33337 1.5C7.67033 1.5 7.03445 1.76339 6.56561 2.23223C6.09677 2.70107 5.83337 3.33696 5.83337 4C5.83337 4.66304 6.09677 5.29893 6.56561 5.76777C7.03445 6.23661 7.67033 6.5 8.33337 6.5C8.99642 6.5 9.6323 6.23661 10.1011 5.76777C10.57 5.29893 10.8334 4.66304 10.8334 4ZM4.33337 4C4.33337 2.93913 4.7548 1.92172 5.50495 1.17157C6.25509 0.421427 7.27251 0 8.33337 0C9.39424 0 10.4117 0.421427 11.1618 1.17157C11.9119 1.92172 12.3334 2.93913 12.3334 4C12.3334 5.06087 11.9119 6.07828 11.1618 6.82843C10.4117 7.57857 9.39424 8 8.33337 8C7.27251 8 6.25509 7.57857 5.50495 6.82843C4.7548 6.07828 4.33337 5.06087 4.33337 4ZM2.874 14.5H13.7927C13.5146 12.5219 11.8146 11 9.7615 11H6.90525C4.85212 11 3.15212 12.5219 2.874 14.5ZM1.33337 15.0719C1.33337 11.9937 3.82712 9.5 6.90525 9.5H9.7615C12.8396 9.5 15.3334 11.9937 15.3334 15.0719C15.3334 15.5844 14.9177 16 14.4052 16H2.2615C1.749 16 1.33337 15.5844 1.33337 15.0719Z" fill="black"/>
</svg>
